<?xml version="1.0" standalone="yes"?>
<svg xmlns="http://www.w3.org/2000/svg" width="2543" height="1747">
<path style="fill:#030203; stroke:none;" d="M2235 108.638C2211.11 115.545 2223.12 152.777 2247 145.695C2271.59 138.401 2259.34 101.602 2235 108.638z"/>
<path style="fill:#c97c82; stroke:none;" d="M2251 110L2252 111L2251 110M2269.67 115.333L2270.33 115.667L2269.67 115.333z"/>
<path style="fill:#3b68ee; stroke:none;" d="M2258 117C2258.9 119.388 2259.68 123.266 2262.3 124.357C2265.37 125.634 2275.11 123.858 2277.38 121.401C2280.51 118.007 2276.18 115.202 2273 115.228C2271.01 115.245 2268.98 115.728 2267 115.95C2263.99 116.287 2261.01 116.762 2258 117z"/>
<path style="fill:#c97c82; stroke:none;" d="M2277 115L2279 117L2277 115M2262 116L2263 117L2262 116M2278 121L2277 123L2278 121M2271 123L2272 124L2271 123M2266.67 124.333L2267.33 124.667L2266.67 124.333M2221 128L2222 129L2221 128M175 129L176 130L175 129z"/>
<path style="fill:#e03628; stroke:none;" d="M186 144L190 138C187.769 135.26 178.872 126.266 175.032 130.782C170.512 136.1 182.441 142.624 186 144z"/>
<path style="fill:#c97c82; stroke:none;" d="M178.667 129.333L179.333 129.667L178.667 129.333z"/>
<path style="fill:#3b68ee; stroke:none;" d="M2221 129C2213.45 139.014 2204.58 155.238 2193.96 161.995C2183.04 168.945 2165.45 171.132 2153 174.709C2119.11 184.449 2081.21 191.724 2049 206L2051 214C2082.11 205.172 2112.91 195.296 2144 186.421C2161.59 181.401 2182.34 178.038 2198.83 170.146C2203.25 168.03 2206.23 162.721 2209.2 159C2216.42 149.938 2227.52 140.921 2221 129z"/>
<path style="fill:#c97c82; stroke:none;" d="M181 130L183 132L181 130M173 131L173 135L174 135L173 131M2219 131L2218 133L2219 131z"/>
<path style="fill:#030203; stroke:none;" d="M199 132.529C174.21 138.22 183.301 176.178 208 170.471C232.504 164.808 223.314 126.948 199 132.529z"/>
<path style="fill:#3b68ee; stroke:none;" d="M207 132L208 133L207 132z"/>
<path style="fill:#c97c82; stroke:none;" d="M186 134L187 135L186 134M214 135L215 136L214 135M174 136L176 138L174 136M189 136L190 137L189 136M2214 137L2215 138L2214 137M177 138L179 140L177 138M2224 138L2225 139L2224 138M2211 141L2212 142L2211 141M2222 141L2223 142L2222 141M182 142L183 143L182 142z"/>
<path style="fill:#3b68ee; stroke:none;" d="M2230 143L2231 144L2230 143z"/>
<path style="fill:#c97c82; stroke:none;" d="M2234 145L2235 146L2234 145M2207 146L2208 147L2207 146M2218 146L2219 147L2218 146M2238 146L2239 147L2238 146z"/>
<path style="fill:#3b68ee; stroke:none;" d="M2243 146L2244 147L2243 146z"/>
<path style="fill:#c97c82; stroke:none;" d="M2205 149L2204 151L2205 149M2215 150L2216 151L2215 150z"/>
<path style="fill:#3b68ee; stroke:none;" d="M222 155L223 156L222 155z"/>
<path style="fill:#c97c82; stroke:none;" d="M2200 155L2201 156L2200 155M225 157L226 158L225 157M2197 159L2198 160L2197 159M2208 159L2209 160L2208 159M221 160L223 162L221 160z"/>
<path style="fill:#e03628; stroke:none;" d="M220 161L216 168C263.149 197.361 301.246 237.807 353 260L357 252C322.318 237.557 293.959 214.577 264.166 192.333C250.996 182.501 235.633 166.185 220 161z"/>
<path style="fill:#c97c82; stroke:none;" d="M225 163L227 165L225 163M2191 163L2192 164L2191 163M2187 164L2188 165L2187 164M2204 164L2205 165L2204 164M2184 165L2185 166L2184 165M229 166L231 168L229 166M2180 166L2181 167L2180 166M2177 167L2178 168L2177 167z"/>
<path style="fill:#3b68ee; stroke:none;" d="M193 168L194 169L193 168z"/>
<path style="fill:#c97c82; stroke:none;" d="M217 168L219 170L217 168M2201 168L2202 169L2201 168z"/>
<path style="fill:#3b68ee; stroke:none;" d="M195 169L196 170L195 169z"/>
<path style="fill:#c97c82; stroke:none;" d="M233 169L234 170L233 169M2170 169L2171 170L2170 169M2167 170L2168 171L2167 170M221 171L222 172L221 171M2194 171L2195 172L2194 171M237 172L239 174L237 172M2160 172L2161 173L2160 172M2190.67 172.333L2191.33 172.667L2190.67 172.333M2157 173L2158 174L2157 173M225 174L227 176L225 174M2153 174L2154 175L2153 174M2184 174L2185 175L2184 174M241 175L242 176L241 175M2150 175L2151 176L2150 175M2177 176L2178 177L2177 176M229 177L230 178L229 177M2174 177L2175 178L2174 177M245 178L247 180L245 178M2170 178L2171 179L2170 178M2137 179L2138 180L2137 179M233 180L235 182L233 180M248 180L250 182L248 180M2133 180L2134 181L2133 180M2164 180L2165 181L2164 180M2130 181L2131 182L2130 181M2126 182L2127 183L2126 182M2157 182L2158 183L2157 182M237 183L238 184L237 183M2123 183L2124 184L2123 183M253 184L255 186L253 184M2150 184L2151 185L2150 184M2116 185L2117 186L2116 185M2147 185L2148 186L2147 185M241 186L243 188L241 186M256 186L258 188L256 186M2143 186L2144 187L2143 186M2110 187L2111 188L2110 187M2140 187L2141 188L2140 187M244 188L246 190L244 188M259 188L261 190L259 188M2106 188L2107 189L2106 188M2136 188L2137 189L2136 188M2103 189L2104 190L2103 189M2099 190L2100 191L2099 190M2130 190L2131 191L2130 190M262 191L263 192L262 191M2096 191L2097 192L2096 191M249 192L251 194L249 192M264 192L266 194L264 192M2123 192L2124 193L2123 192M2089 193L2090 194L2089 193M2120 193L2121 194L2120 193M252 194L254 196L252 194M267 194L269 196L267 194M2086 194L2087 195L2086 194M2116 194L2117 195L2116 194M2083 195L2084 196L2083 195M2113 195L2114 196L2113 195z"/>
<path style="fill:#030203; stroke:none;" d="M2026 196.558C2001.71 202.93 2013.2 240.628 2037 234.072C2060.52 227.593 2051.04 189.989 2026 196.558z"/>
<path style="fill:#c97c82; stroke:none;" d="M2037 196L2038 197L2037 196M2079 196L2080 197L2079 196M2110 196L2111 197L2110 196M270 197L271 198L270 197M2076 197L2077 198L2076 197M257 198L258 199L257 198M272 198L274 200L272 198M2021 198L2022 199L2021 198M2072 198L2073 199L2072 198M2102.67 198.333L2103.33 198.667L2102.67 198.333M2069 199L2070 200L2069 199M260 200L262 202L260 200M275 200L277 202L275 200M2096 200L2097 201L2096 200M2062 201L2063 202L2062 201M2093 201L2094 202L2093 201M263 202L264 203L263 202M2089 202L2090 203L2089 202M2086 203L2087 204L2086 203M280 204L282 206L280 204M2052 204L2053 205L2052 204M2082.67 204.333L2083.33 204.667L2082.67 204.333M266 205L267 206L266 205M2049 205L2050 206L2049 205M268 206L270 208L268 206M283 206L285 208L283 206M2076 206L2077 207L2076 206M271 208L273 210L271 208M2069 208L2070 209L2069 208M2066 209L2067 210L2066 209M288 210L290 212L288 210M2062 210L2063 211L2062 210M2059 211L2060 212L2059 211M276 212L278 214L276 212M291 212L295 216L291 212M2056 212L2057 213L2056 212M2052 213L2053 214L2052 213M279 214L281 216L279 214M2011 216L2012 217L2011 216M297 217L300 220L297 217M2009 217L2010 218L2009 217z"/>
<path style="fill:#3b68ee; stroke:none;" d="M1879 304L1879 305L1883 311L1922 286.333L2015 225L2012 217C1995.66 222.208 1979.28 237.333 1965 246.833C1936.54 265.77 1906.1 283.172 1879 304z"/>
<path style="fill:#c97c82; stroke:none;" d="M284 218L286 220L284 218M2006 219L2007 220L2006 219z"/>
<path style="fill:#3b68ee; stroke:none;" d="M2050 219L2049 221L2050 219z"/>
<path style="fill:#c97c82; stroke:none;" d="M287 220L288 221L287 220M2003 221L2004 222L2003 221M289 222L291 224L289 222M303 222L305 224L303 222z"/>
<path style="fill:#3b68ee; stroke:none;" d="M2048 222L2049 223L2048 222z"/>
<path style="fill:#c97c82; stroke:none;" d="M2000 223L2001 224L2000 223M2047 224L2048 225L2047 224M1997 225L1998 226L1997 225M294 226L296 228L294 226M308 226L310 228L308 226M2046 226L2047 227L2046 226M1994 227L1995 228L1994 227M2016 227L2017 228L2016 227M297 228L298 229L297 228M311 228L312 229L311 228M2008 228L2009 229L2008 228M2045 228L2046 229L2045 228M313 229L314 230L313 229M1991 229L1992 230L1991 229z"/>
<path style="fill:#3b68ee; stroke:none;" d="M2044 229L2045 230L2044 229z"/>
<path style="fill:#c97c82; stroke:none;" d="M299 230L301 232L299 230M315 230L318 232L318 231L315 230M2005 230L2006 231L2005 230M1988 231L1989 232L1988 231M319 232L321 234L319 232M2002 232L2003 233L2002 232M1985 233L1986 234L1985 233M304 234L305 235L304 234M323 234L325 236L323 234M1999 234L2000 235L1999 234M2028 234L2029 235L2028 234M308 236L310 238L308 236M326 236L327 237L326 236M1996 236L1997 237L1996 236M328 237L329 238L328 237M1979 237L1980 238L1979 237M330 238L331 239L330 238M1993 238L1994 239L1993 238M313 239L314 240L313 239M332 239L333 240L332 239M315 240L316 241L315 240M334 240L335 241L334 240M1990 240L1991 241L1990 240M317 241L318 242L317 241M336 241L337 242L336 241M1973 241L1974 242L1973 241M319 242L320 243L319 242M338 242L339 243L338 242M1987 242L1988 243L1987 242M321 243L322 244L321 243M323 244L326 246L326 245L323 244M1984 244L1985 245L1984 244M343 245L344 246L343 245M1967 245L1968 246L1967 245M327 246L329 248L327 246M1981 246L1982 247L1981 246M347 247L348 248L347 247M330 248L330 249L333 250L330 248M349 248L350 249L349 248z"/>
<path style="fill:#030203; stroke:none;" d="M366 248.529C341.842 254.112 350.918 291.998 375 286.471C399.859 280.765 390.933 242.767 366 248.529z"/>
<path style="fill:#c97c82; stroke:none;" d="M1978 248L1979 249L1978 248M351 249L352 250L351 249M1961 249L1962 250L1961 249M334 250L334 251L337 252L334 250M353 250L354 251L353 250M1975 250L1976 251L1975 250M355 251L356 252L355 251M338 252L339 253L338 252M357 252L358 253L357 252z"/>
<path style="fill:#3b68ee; stroke:none;" d="M383 252L384 253L383 252z"/>
<path style="fill:#c97c82; stroke:none;" d="M1956 252L1957 253L1956 252M1972 252L1973 253L1972 252M340 253L341 254L340 253M342 254L343 255L342 254M1969 254L1970 255L1969 254M346 256L348 258L346 256M1950 256L1949 258L1950 256M1966 256L1967 257L1966 256M1947 258L1948 259L1947 258M1963 258L1964 259L1963 258M351 259L353 261L351 259M1944 260L1943 262L1944 260M1960 260L1961 261L1960 260M389 261L390 262L389 261M1941 262L1942 263L1941 262M1957 262L1958 263L1957 262z"/>
<path style="fill:#3b68ee; stroke:none;" d="M351 264L352 265L351 264z"/>
<path style="fill:#c97c82; stroke:none;" d="M1938 264L1939 265L1938 264M1954 264L1955 265L1954 264M1935 266L1936 267L1935 266M1951 266L1952 267L1951 266M1932 268L1933 269L1932 268M1948 268L1949 269L1948 268M351 270L352 271L351 270z"/>
<path style="fill:#e03628; stroke:none;" d="M390 270C385.879 288.307 423.54 294.053 437 297.374C491.123 310.731 546.968 328.593 603 331L604 323C561.216 319.623 519.486 308.845 478 298.474C457.688 293.396 435.619 290.402 416 283.049C406.952 279.657 398.929 273.718 390 270z"/>
<path style="fill:#c97c82; stroke:none;" d="M391 270L392 271L391 270M1929 270L1930 271L1929 270M1945 270L1946 271L1945 270M393 271L394 272L393 271M395 272L396 273L395 272M1926 272L1927 273L1926 272M397 273L398 274L397 273M399 274L402 276L402 275L399 274M1923 274L1924 275L1923 274M353 276L354 277L353 276M403 276L405 278L403 276M1920 276L1921 277L1920 276M388 278L389 279L388 278M407 278L409 280L407 278M1917 278L1918 279L1917 278z"/>
<path style="fill:#3b68ee; stroke:none;" d="M355 279L356 280L355 279z"/>
<path style="fill:#c97c82; stroke:none;" d="M410 280L410 281L413 282L410 280M1914 280L1915 281L1914 280M393 281L394 282L393 281M395 282L396 283L395 282M414 282L415 283L414 282M1911 282L1912 283L1911 282M397 283L398 284L397 283M416.667 283.333L417.333 283.667L416.667 283.333M399 284L400 285L399 284M421.667 284.333L422.333 284.667L421.667 284.333z"/>
<path style="fill:#3b68ee; stroke:none;" d="M363 285L364 286L363 285z"/>
<path style="fill:#c97c82; stroke:none;" d="M401 285L402 286L401 285M424.667 285.333L425.333 285.667L424.667 285.333M366 286L367 287L366 286M403 286L406 288L406 287L403 286M429.667 286.333L430.333 286.667L429.667 286.333M1905 286L1906 287L1905 286M432.667 287.333L433.333 287.667L432.667 287.333M407 288L409 290L407 288M437.667 288.333L438.333 288.667L437.667 288.333M440.667 289.333L441.333 289.667L440.667 289.333M445.667 290.333L446.333 290.667L445.667 290.333M1899 290L1900 291L1899 290M412 291L413 292L412 291M448.667 291.333L449.333 291.667L448.667 291.333M416.667 292.333L417.333 292.667L416.667 292.333M454 292L455 293L454 292M420 293L421 294L420 293M456 293L456 294L459 294L456 293M424.667 294.333L425.333 294.667L424.667 294.333M462 294L463 295L462 294M1893 294L1894 295L1893 294M428 295L429 296L428 295M464 295L464 296L467 296L464 295M432.667 296.333L433.333 296.667L432.667 296.333M470 296L471 297L470 296M436.667 297.333L437.333 297.667L436.667 297.333M473.667 297.333L474.333 297.667L473.667 297.333M1904 297L1905 298L1904 297M441 298L442 299L441 298M478.667 298.333L479.333 298.667L478.667 298.333M444.667 299.333L445.333 299.667L444.667 299.333M481.667 299.333L482.333 299.667L481.667 299.333z"/>
<path style="fill:#030203; stroke:none;" d="M1860 299.533C1835.84 305.405 1845.86 343.058 1870 337.316C1894.73 331.433 1884.67 293.539 1860 299.533z"/>
<path style="fill:#c97c82; stroke:none;" d="M449 300L450 301L449 300M486.667 300.333L487.333 300.667L486.667 300.333M452.667 301.333L453.333 301.667L452.667 301.333M489.667 301.333L490.333 301.667L489.667 301.333M1898 301L1899 302L1898 301M457 302L458 303L457 302M494.667 302.333L495.333 302.667L494.667 302.333M1876 302L1877 303L1876 302M460.667 303.333L461.333 303.667L460.667 303.333M497.667 303.333L498.333 303.667L497.667 303.333M465.667 304.333L466.333 304.667L465.667 304.333M502.667 304.333L503.333 304.667L502.667 304.333z"/>
<path style="fill:#3b68ee; stroke:none;" d="M1851 304L1850 306L1851 304z"/>
<path style="fill:#c97c82; stroke:none;" d="M468.667 305.333L469.333 305.667L468.667 305.333M505.667 305.333L506.333 305.667L505.667 305.333M1892 305L1893 306L1892 305M473.667 306.333L474.333 306.667L473.667 306.333M510.667 306.333L511.333 306.667L510.667 306.333M477 307L478 308L477 307M513.667 307.333L514.333 307.667L513.667 307.333M1889 307L1890 308L1889 307M481.667 308.333L482.333 308.667L481.667 308.333M518.667 308.333L519.333 308.667L518.667 308.333M484.667 309.333L485.333 309.667L484.667 309.333M521.667 309.333L522.333 309.667L521.667 309.333M1886 309L1887 310L1886 309M489.667 310.333L490.333 310.667L489.667 310.333M526.667 310.333L527.333 310.667L526.667 310.333M493 311L494 312L493 311M529.667 311.333L530.333 311.667L529.667 311.333z"/>
<path style="fill:#3b68ee; stroke:none;" d="M616 311L617 312L616 311z"/>
<path style="fill:#030203; stroke:none;" d="M617 311.532C593.497 317.132 602.428 354.475 626 349.316C651.628 343.706 642.516 305.453 617 311.532z"/>
<path style="fill:#c97c82; stroke:none;" d="M1883 311L1884 312L1883 311M497.667 312.333L498.333 312.667L497.667 312.333M534.667 312.333L535.333 312.667L534.667 312.333M1846 312L1847 313L1846 312M501 313L502 314L501 313M537 313L537 314L541 314L537 313M632 313L633 314L632 313M506 314L507 315L506 314M546.667 314.333L547.333 314.667L546.667 314.333M610 314L611 315L610 314M509 315L510 316L509 315M551 315L551 316L554 316L551 315M1884 315L1885 316L1884 315M514 316L515 317L514 316M559 316L559 317L562 317L559 316M517.667 317.333L518.333 317.667L517.667 317.333M564 317L564 318L568 318L564 317M522.667 318.333L523.333 318.667L522.667 318.333M572 318L572 319L576 319L572 318M525.667 319.333L526.333 319.667L525.667 319.333M578 319L578 320L581 320L578 319M530.667 320.333L531.333 320.667L530.667 320.333M586 320L586 321L589 321L586 320M533.667 321.333L534.333 321.667L533.667 321.333M591 321L591 322L594 322L591 321M1884 321L1885 322L1884 321M540 322L540 323L543 323L540 322M599 322L599 323L602 323L599 322M546 323L546 324L549 324L546 323M554 324L554 325L557 325L554 324M1846.33 324.667L1846.67 325.333L1846.33 324.667M560 325L560 326L563 326L560 325M567 326L567 327L570 327L567 326M641 326L642 327L641 326z"/>
<path style="fill:#3b68ee; stroke:none;" d="M1723 408C1730.86 420.387 1748.1 401.599 1757 395.667C1787.87 375.089 1818.78 349.458 1852 333L1847 326L1810 349.667L1723 408z"/>
<path style="fill:#c97c82; stroke:none;" d="M573 327L573 328L576 328L573 327M1843 327L1844 328L1843 327z"/>
<path style="fill:#3b68ee; stroke:none;" d="M1882 327L1883 328L1882 327z"/>
<path style="fill:#c97c82; stroke:none;" d="M581 328L581 329L584 329L581 328M586 329L586 330L589 330L586 329z"/>
<path style="fill:#e03628; stroke:none;" d="M642 329L641 337C690.686 346.257 741.128 352.072 791 360.435C818.488 365.045 848.141 373.769 876 374L876.343 367.024L861 363.869L823 357.565L642 329z"/>
<path style="fill:#c97c82; stroke:none;" d="M645 329L645 330L648 330L645 329M1840 329L1841 330L1840 329M594 330L594 331L598 331L594 330M653 330L653 331L656 331L653 330M600 331L600 332L603 332L600 331M658 331L658 332L662 332L658 331M1837 331L1838 332L1837 331M666 332L666 333L670 333L666 332M672 333L672 334L675 334L672 333M1834 333L1835 334L1834 333M1850 333L1851 334L1850 333M680 334L680 335L683 335L680 334M1848 334L1849 335L1848 334z"/>
<path style="fill:#3b68ee; stroke:none;" d="M595 335L595 337L597 337L595 335z"/>
<path style="fill:#c97c82; stroke:none;" d="M596 335L597 336L596 335M685 335L685 336L688 336L685 335M1831 335L1832 336L1831 335M1855 335L1856 336L1855 335M693 336L693 337L696 337L693 336M1857 336L1858 337L1857 336M595.333 337.667L595.667 338.333L595.333 337.667z"/>
<path style="fill:#030203; stroke:none;" d="M596.333 337.667L596.667 338.333L596.333 337.667z"/>
<path style="fill:#c97c82; stroke:none;" d="M640 337L640 338L644 338L640 337M699 337L699 338L702 338L699 337M1828 337L1829 338L1828 337M1844 337L1845 338L1844 337M1860 337L1861 338L1860 337z"/>
<path style="fill:#3b68ee; stroke:none;" d="M1869 337L1870 338L1869 337z"/>
<path style="fill:#c97c82; stroke:none;" d="M648 338L648 339L651 339L648 338M707 338L707 339L710 339L707 338M1842 338L1841 340L1842 338M639 339L640 340L639 339M654 339L654 340L657 340L654 339M712 339L712 340L716 340L712 339M1825 339L1826 340L1825 339M661 340L661 341L665 341L661 340M720 340L720 341L723 341L720 340M667 341L667 342L670 342L667 341M726 341L726 342L729 342L726 341M1822 341L1823 342L1822 341M675 342L675 343L678 343L675 342M733 342L733 343L736 343L733 342M1836 342L1837 343L1836 342M680 343L680 344L684 344L680 343M738 343L738 344L741 344L738 343M1819 343L1820 344L1819 343M688 344L688 345L692 345L688 344M746.667 344.333L747.333 344.667L746.667 344.333M1833 344L1834 345L1833 344M694 345L694 346L697 346L694 345M750 345L750 346L753 346L750 345M1816 345L1817 346L1816 345z"/>
<path style="fill:#3b68ee; stroke:none;" d="M611 346L612 347L611 346z"/>
<path style="fill:#c97c82; stroke:none;" d="M702 346L702 347L705 347L702 346M757 346L757 347L760 347L757 346M1830 346L1831 347L1830 346M708.667 347.333L709.333 347.667L708.667 347.333M762 347L762 348L765 348L762 347M1813 347L1814 348L1813 347M715 348L715 349L718 349L715 348M770.667 348.333L771.333 348.667L770.667 348.333M1827 348L1828 349L1827 348z"/>
<path style="fill:#3b68ee; stroke:none;" d="M619 349L620 350L619 349z"/>
<path style="fill:#c97c82; stroke:none;" d="M625 349L626 350L625 349M721 349L721 350L724 350L721 349M774 349L774 350L777 350L774 349M1810 349L1811 350L1810 349M728 350L728 351L732 351L728 350M781 350L781 351L784 351L781 350M1824 350L1825 351L1824 350M734 351L734 352L737 352L734 351M786 351L786 352L789 352L786 351M1807 351L1808 352L1807 351M741 352L741 353L744 353L741 352M793 352L793 353L796 353L793 352M1821 352L1822 353L1821 352M746 353L746 354L749 354L746 353M798 353L798 354L801 354L798 353M1804 353L1805 354L1804 353M753 354L753 355L756 355L753 354M805 354L805 355L808 355L805 354M1818 354L1819 355L1818 354M758 355L758 356L761 356L758 355M810 355L810 356L813 356L810 355M1801 355L1802 356L1801 355M765 356L765 357L768 357L765 356M817 356L817 357L820 357L817 356M1815 356L1816 357L1815 356M770 357L770 358L773 358L770 357M822 357L822 358L825 358L822 357M1798 357L1799 358L1798 357M777 358L777 359L780 359L777 358M829 358L829 359L832 359L829 358z"/>
<path style="fill:#030203; stroke:none;" d="M891 358.529C866.122 364.24 874.966 402.43 900 396.468C923.972 390.758 914.937 353.035 891 358.529z"/>
<path style="fill:#c97c82; stroke:none;" d="M1812 358L1813 359L1812 358M782 359L782 360L785 360L782 359M834 359L834 360L837 360L834 359M887 359L888 360L887 359M902 359L903 360L902 359M1795 359L1796 360L1795 359M789 360L789 361L792 361L789 360M841 360L841 361L844 361L841 360M885 360L886 361L885 360z"/>
<path style="fill:#3b68ee; stroke:none;" d="M904 360L905 361L904 360z"/>
<path style="fill:#c97c82; stroke:none;" d="M1809 360L1810 361L1809 360M794 361L794 362L797 362L794 361M846 361L846 362L849 362L846 361M1792 361L1793 362L1792 361M800 362L800 363L804 363L800 362M853 362L853 363L856 363L853 362M907 362L908 363L907 362M1806 362L1807 363L1806 362M806 363L806 364L809 364L806 363M858 363L858 364L861 364L858 363z"/>
<path style="fill:#3b68ee; stroke:none;" d="M881 363L882 364L881 363z"/>
<path style="fill:#c97c82; stroke:none;" d="M1789 363L1790 364L1789 363M813 364L813 365L816 365L813 364M865 364L865 365L868 365L865 364M880 364L881 365L880 364M1803 364L1804 365L1803 364M818 365L818 366L821 366L818 365M870 365L870 366L873 366L870 365M825 366L825 367L828 367L825 366M877.667 366.333L878.333 366.667L877.667 366.333M1800 366L1801 367L1800 366M830.667 367.333L831.333 367.667L830.667 367.333M1783 367L1784 368L1783 367M837 368L837 369L840 369L837 368M1797 368L1798 369L1797 368M842 369L842 370L845 370L842 369M1780 369L1781 370L1780 369M849 370L849 371L852 371L849 370M1794 370L1795 371L1794 370M854.667 371.333L855.333 371.667L854.667 371.333M920 371L918 373L918 374L923 371L920 371M1777 371L1778 372L1777 371M861 372L861 373L864 373L861 372M914.667 372.333L915.333 372.667L914.667 372.333z"/>
<path style="fill:#030203; stroke:none;" d="M920 372L921 373L920 372z"/>
<path style="fill:#c97c82; stroke:none;" d="M1791 372L1792 373L1791 372M866 373L866 374L869 374L866 373z"/>
<path style="fill:#e03628; stroke:none;" d="M914 373L914 381C925.486 383.742 937.453 384.418 949 386.884C952.567 387.646 957.667 387.398 960.606 389.742C967.188 394.991 970.326 409.446 973.769 417C984.916 441.45 996.309 466.099 1006.4 491C1012.62 506.37 1015.62 523.849 1019.35 540C1021.44 549.052 1021.09 557.961 1032 558C1028.06 512.8 1006.2 469.863 988.424 429C983.633 417.986 978.924 406.917 973.92 396C972.094 392.018 970.685 385.708 967.351 382.742C964.029 379.785 957.198 380 953 379.197C940.219 376.751 926.975 374.024 914 373z"/>
<path style="fill:#c97c82; stroke:none;" d="M873 374L873 375L876 375L873 374M925 374L925 375L928 375L925 374M1788 374L1789 375L1788 374M930 375L930 376L933 376L930 375M1771 375L1772 376L1771 375M875 376L876 377L875 376M937 376L937 377L940 377L937 376M1785 376L1786 377L1785 376z"/>
<path style="fill:#3b68ee; stroke:none;" d="M875.333 377.667L875.667 378.333L875.333 377.667z"/>
<path style="fill:#c97c82; stroke:none;" d="M942 377L942 378L945 378L942 377M949 378L949 379L952 379L949 378M1782 378L1783 379L1782 378M954 379L954 380L957 380L954 379M1765 379L1766 380L1765 379M960 380L960 381L964 381L960 380M1779 380L1780 381L1779 380M914.667 381.333L915.333 381.667L914.667 381.333M966.667 381.333L967.333 381.667L966.667 381.333M921 382L921 383L924 383L921 382M1760 382L1759 384L1760 382M1776 382L1777 383L1776 382M926.667 383.333L927.333 383.667L926.667 383.333M968 383L969 384L968 383M933 384L933 385L936 385L933 384M1757 384L1758 385L1757 384M938.667 385.333L939.333 385.667L938.667 385.333M969 385L970 386L969 385M912 386L913 387L912 386M944 386L944 387L948 387L944 386M1754 386L1753 388L1754 386M1770 386L1771 387L1770 386M950.667 387.333L951.333 387.667L950.667 387.333M957 388L957 389L960 389L957 388M970 388L971 389L970 388M1751 388L1752 389L1751 388M1767 388L1768 389L1767 388M879 389L880 390L879 389M961 389L962 390L961 389M971 390L972 391L971 390M1748 390L1747 392L1748 390M1764 390L1765 391L1764 390M962 391L963 392L962 391M972 392L974 395L972 392M1745 392L1746 393L1745 392M963 393L964 394L963 393M1742 394L1743 395L1742 394M964 396L965 397L964 396M1739 396L1740 397L1739 396M974 397L975 398L974 397M965 398L966 399L965 398M975 399L976 400L975 399M1735 399L1736 400L1735 399M966 400L967 401L966 400M976 401L977 402L976 401M967 402L968 403L967 402z"/>
<path style="fill:#030203; stroke:none;" d="M1359 402.504C1333.14 406.058 1338.96 444.109 1365 440.815C1389.23 437.751 1382.8 399.233 1359 402.504z"/>
<path style="fill:#c97c82; stroke:none;" d="M977 403L978 404L977 403M1354 403L1355 404L1354 403M1705 403L1706 404L1705 403z"/>
<path style="fill:#030203; stroke:none;" d="M1706 403.468C1680.77 408.278 1688.8 446.21 1714 441.671C1738.44 437.267 1730.33 398.83 1706 403.468z"/>
<path style="fill:#c97c82; stroke:none;" d="M1728 404L1727 406L1728 404M968 405L969 408L970 408L968 405M1350 405L1351 406L1350 405M978 406L979 407L978 406M1740 406L1741 407L1740 406M1724 407L1725 408L1724 407M979 408L980 409L979 408M970 409L971 410L970 409M1736 409L1737 410L1736 409M980 410L981 414L982 414L980 410M971 411L972 412L971 411M1536 411L1537 412L1536 411z"/>
<path style="fill:#3b68ee; stroke:none;" d="M1537.67 411.333L1538.33 411.667L1537.67 411.333z"/>
<path style="fill:#030203; stroke:none;" d="M1532 412.533C1508.27 418.3 1518.72 455.672 1542 450.093C1567.37 444.013 1557.53 406.328 1532 412.533z"/>
<path style="fill:#3b68ee; stroke:none;" d="M1343 413L1344 414L1343 413M1546 413L1547 414L1546 413z"/>
<path style="fill:#c97c82; stroke:none;" d="M972 414L973 415L972 414M1729 414L1730 415L1729 414M982 415L983 416L982 415z"/>
<path style="fill:#3b68ee; stroke:none;" d="M1691 415L1692 416L1691 415z"/>
<path style="fill:#c97c82; stroke:none;" d="M973 416L974 417L973 416M983 417L984 418L983 417M974 418L976 421L974 418M984 420L985 421L984 420z"/>
<path style="fill:#3b68ee; stroke:none;" d="M1381 420L1380 428L1474 429.039L1518 433L1519 425L1381 420z"/>
<path style="fill:#c97c82; stroke:none;" d="M1438 420L1438 421L1457 421L1438 420M1482 421L1482 422L1485 422L1482 421M985 422L986 423L985 422M1338 422L1339 423L1338 422z"/>
<path style="fill:#3b68ee; stroke:none;" d="M1198 437L1194 465L1202 466C1203.04 460.633 1202.82 448.45 1207.43 444.988C1215.77 438.732 1232.18 439.765 1242 438.83C1260.27 437.091 1278.68 437.61 1297 435.83C1312.3 434.344 1328.62 429.944 1344 431L1342 422L1229 431.17L1198 437z"/>
<path style="fill:#c97c82; stroke:none;" d="M1493.67 422.333L1494.33 422.667L1493.67 422.333M1555 422L1556 423L1555 422M976 423L977 424L976 423M1329 423L1329 424L1332 424L1329 423M1502 423L1502 424L1505 424L1502 423M986 424L987 425L986 424M1320.67 424.333L1321.33 424.667L1320.67 424.333M1514 424L1515 425L1514 424M977 425L978 426L977 425M1311 425L1311 426L1314 426L1311 425M987 426L988 427L987 426M1303 426L1304 427L1303 426M1690 426L1689 428L1690 426M978 427L979 428L978 427M1294.67 427.333L1295.33 427.667L1294.67 427.333z"/>
<path style="fill:#3b68ee; stroke:none;" d="M1690 427C1677.24 433.047 1663.95 433.428 1650 434.039C1618.6 435.416 1588.35 429.26 1557 429L1557 437C1600.89 440.464 1651.92 452.52 1694 435L1690 427z"/>
<path style="fill:#c97c82; stroke:none;" d="M1285 428L1286 429L1285 428M1380 428L1380 429L1419 429C1408.73 424.689 1391.17 428 1380 428M979 429L980 430L979 429M988 429L989 430L988 429M1261 429L1261 430L1270 430L1261 429M1477.67 429.333L1478.33 429.667L1477.67 429.333M1564 429L1564 430L1567 430L1564 429M1234 430L1234 431L1238 431L1234 430M1342 430L1343 431L1342 430M1488 430L1488 431L1491 431L1488 430M1576 430L1577 431L1576 430M1682 430L1683 431L1682 430M989 431L990 432L989 431M1226 431L1227 432L1226 431M1334.67 431.333L1335.33 431.667L1334.67 431.333M1498.67 431.333L1499.33 431.667L1498.67 431.333M1584 431L1584 432L1587 432L1584 431M1680 431L1681 432L1680 431M980 432L981 433L980 432M1324 432L1324 433L1327 433L1324 432M1508 432L1508 433L1512 433L1508 432M1596.67 432.333L1597.33 432.667L1596.67 432.333M1670.67 432.333L1671.33 432.667L1670.67 432.333M990 433L991 434L990 433M1216 433L1217 434L1216 433M1316.67 433.333L1317.33 433.667L1316.67 433.333M1605 433L1605 434L1608 434L1605 433M1657 433L1657 434L1661 434L1657 433M981 434L982 435L981 434M1211 434L1212 435L1211 434M1306 434L1306 435L1309 435L1306 434M1616.67 434.333L1617.33 434.667L1616.67 434.333M1645 434L1646 435L1645 434M991 435L992 436L991 435M1206.67 435.333L1207.33 435.667L1206.67 435.333M1299 435L1300 436L1299 435M1626 435L1626 436L1629 436L1626 435M1632 435L1632 436L1636 436L1632 435M1692 435L1693 436L1692 435M1201 436L1202 437L1201 436M1288 436L1288 437L1292 437L1288 436M1690 436L1691 437L1690 436M1723 436L1724 437L1723 436M982 437L983 440L984 440L982 437M1276 437L1276 438L1280 438L1276 437M1560.67 437.333L1561.33 437.667L1560.67 437.333M992 438L993 439L992 438M1244 438L1244 439L1252 439L1244 438M1570 438L1570 439L1573 439L1570 438M1229 439L1230 440L1229 439M1352 439L1353 440L1352 439z"/>
<path style="fill:#3b68ee; stroke:none;" d="M1555 439L1556 440L1555 439z"/>
<path style="fill:#c97c82; stroke:none;" d="M1580.67 439.333L1581.33 439.667L1580.67 439.333M993 440L994 441L993 440M1224.67 440.333L1225.33 440.667L1224.67 440.333M1367 440L1368 441L1367 440M1590 440L1590 441L1594 441L1590 440M1676 440L1676 441L1680 441L1676 440M984 441L985 442L984 441M1197.33 441.667L1197.67 442.333L1197.33 441.667M1220 441L1221 442L1220 441z"/>
<path style="fill:#3b68ee; stroke:none;" d="M1360.67 441.333L1361.33 441.667L1360.67 441.333z"/>
<path style="fill:#c97c82; stroke:none;" d="M1601.67 441.333L1602.33 441.667L1601.67 441.333M1665.67 441.333L1666.33 441.667L1665.67 441.333M994 442L996 445L994 442M1214.67 442.333L1215.33 442.667L1214.67 442.333M1611 442L1611 443L1614 443L1611 442M1650 442L1650 443L1654 443L1650 442M985 443L986 444L985 443M1621.67 443.333L1622.33 443.667L1621.67 443.333M1638 443L1638 444L1641 444L1638 443M1206 444L1207 445L1206 444M986 446L987 447L986 446M1205 446L1206 447L1205 446M996 447L997 448L996 447M1196 447L1197 448L1196 447M1548 447L1549 448L1548 447M987 448L988 449L987 448M997 449L998 450L997 449z"/>
<path style="fill:#3b68ee; stroke:none;" d="M1531 449L1532 450L1531 449z"/>
<path style="fill:#c97c82; stroke:none;" d="M988 450L989 451L988 450M998 451L999 452L998 451M1204.33 451.667L1204.67 452.333L1204.33 451.667M989 452L990 453L989 452M999 453L1000 454L999 453M1195 453L1196 454L1195 453M990 455L991 458L992 458L990 455M1000 456L1001 457L1000 456M1001 458L1002 459L1001 458M1194.33 458.667L1194.67 459.333L1194.33 458.667M1203 458L1204 459L1203 458M992 459L993 460L992 459M1002 460L1003 464L1004 464L1002 460M993 461L994 462L993 461M1202 463L1203 464L1202 463M994 464L995 465L994 464M1193 464L1194 465L1193 464M1004 465L1005 466L1004 465z"/>
<path style="fill:#030203; stroke:none;" d="M1192 465.529C1167.58 471.165 1176.51 509.121 1201 503.471C1225.77 497.755 1216.52 459.87 1192 465.529z"/>
<path style="fill:#c97c82; stroke:none;" d="M995 466L996 467L995 466M1005 467L1006 468L1005 467M996 468L998 471L996 468M1006 470L1007 471L1006 470M998 473L999 474L998 473z"/>
<path style="fill:#3b68ee; stroke:none;" d="M1180 473L1181 474L1180 473z"/>
<path style="fill:#c97c82; stroke:none;" d="M1008 474L1009 475L1008 474M999 475L1000 476L999 475M1009 476L1010 477L1009 476M1214 476L1215 477L1214 476M1000 477L1001 478L1000 477M1010 479L1011 482L1012 482L1010 479M1177 480L1178 481L1177 480M1002 482L1003 483L1002 482M1012 483L1013 484L1012 483M1003 484L1004 485L1003 484M1013 485L1014 486L1013 485M1004 486L1005 490L1006 490L1004 486M1014 488L1015 489L1014 488z"/>
<path style="fill:#3b68ee; stroke:none;" d="M1177 488L1178 489L1177 488z"/>
<path style="fill:#c97c82; stroke:none;" d="M1015 490L1016 491L1015 490M1006 491L1007 492L1006 491M1016.33 492.667L1016.67 493.333L1016.33 492.667z"/>
<path style="fill:#3b68ee; stroke:none;" d="M1214 492L1215 493L1214 492z"/>
<path style="fill:#c97c82; stroke:none;" d="M1007 493L1008 494L1007 493M1213 494L1214 495L1213 494M1017.33 495.667L1017.67 496.333L1017.33 495.667M1008 496L1009 497L1008 496M1009.33 499.667L1009.67 500.333L1009.33 499.667M1018.33 500.667L1018.67 501.333L1018.33 500.667M1019.33 503.667L1019.67 504.333L1019.33 503.667z"/>
<path style="fill:#3b68ee; stroke:none;" d="M1190 503L1189.39 541L1212.79 585L1216 609L1224 608L1220.64 581L1197.86 539L1198 504L1190 503z"/>
<path style="fill:#c97c82; stroke:none;" d="M1201 503L1202 504L1201 503M1010.33 504.667L1010.67 505.333L1010.33 504.667M1198 504L1198 509L1199 509L1198 504M1011.33 507.667L1011.67 508.333L1011.33 507.667M1020.33 508.667L1020.67 509.333L1020.33 508.667M1012.33 512.667L1012.67 513.333L1012.33 512.667M1021 512L1022 513L1021 512M1189 513L1189 522L1190 522L1189 513M1013 516L1014 517L1013 516M1022.33 516.667L1022.67 517.333L1022.33 516.667M1014.33 520.667L1014.67 521.333L1014.33 520.667M1023.33 520.667L1023.67 521.333L1023.33 520.667M1015 524L1016 525L1015 524M1024.33 524.667L1024.67 525.333L1024.33 524.667M1016.33 528.667L1016.67 529.333L1016.33 528.667M1025.33 528.667L1025.67 529.333L1025.33 528.667M1017.33 532.667L1017.67 533.333L1017.33 532.667M1026.33 533.667L1026.67 534.333L1026.33 533.667M1197 533L1197 538L1198 538L1197 533M1018.33 536.667L1018.67 537.333L1018.33 536.667M1027.33 536.667L1027.67 537.333L1027.33 536.667M1019.33 540.667L1019.67 541.333L1019.33 540.667M1028.33 541.667L1028.67 542.333L1028.33 541.667M1198 541L1199 542L1198 541M1189 542L1190 543L1189 542M1029.33 544.667L1029.67 545.333L1029.33 544.667M1020.33 545.667L1020.67 546.333L1020.33 545.667M1201 546L1202 547L1201 546M1021.33 548.667L1021.67 549.333L1021.33 548.667M1202 548L1203 549L1202 548M1030.33 549.667L1030.67 550.333L1030.33 549.667M1193 549L1194 550L1193 549M1031.33 552.667L1031.67 553.333L1031.33 552.667M1022.33 553.667L1022.67 554.333L1022.33 553.667M1195 553L1196 554L1195 553M1205 553L1206 554L1205 553M1206 555L1207 556L1206 555M1023.33 556.667L1023.67 557.333L1023.33 556.667M1197 556L1198 557L1197 556M1032 557L1033 558L1032 557M1207 557L1208 558L1207 557z"/>
<path style="fill:#030203; stroke:none;" d="M1023 558.638C999.287 565.494 1011.24 602.665 1035 595.694C1059.69 588.451 1047.38 551.588 1023 558.638z"/>
<path style="fill:#3b68ee; stroke:none;" d="M1035 558L1036 559L1035 558z"/>
<path style="fill:#c97c82; stroke:none;" d="M1208 559L1209 560L1208 559M1199 560L1200 561L1199 560M1200 562L1201 563L1200 562M1210 562L1211 563L1210 562M1211 564L1212 565L1211 564z"/>
<path style="fill:#3b68ee; stroke:none;" d="M1013 565L1014 566L1013 565z"/>
<path style="fill:#c97c82; stroke:none;" d="M1203 567L1204 568L1203 567M1204 569L1205 570L1204 569M1010 571L1011 572L1010 571M1205 571L1206 572L1205 571M1215 571L1216 572L1215 571z"/>
<path style="fill:#3b68ee; stroke:none;" d="M1048 573L1049 574L1048 573z"/>
<path style="fill:#c97c82; stroke:none;" d="M1216 573L1217 574L1216 573M1217 575L1218 576L1217 575M1209 578L1210 579L1209 578M1210 580L1211 581L1210 580M1220 580L1221 581L1220 580z"/>
<path style="fill:#3b68ee; stroke:none;" d="M1010 582L1011 583L1010 582z"/>
<path style="fill:#c97c82; stroke:none;" d="M1221 582L1222 583L1221 582M1213 585L1214 586L1213 585M1222 586L1222 590L1223 590L1222 586M1043 590L1042 592L1043 590z"/>
<path style="fill:#3b68ee; stroke:none;" d="M1020 594L1021 595L1020 594z"/>
<path style="fill:#e03628; stroke:none;" d="M1024 596L996.464 727L989 786C996.413 787.428 997.833 782.201 998.729 776C1000.32 765.027 1001.34 753.98 1002.87 743C1007.91 706.697 1017.26 670.95 1024.45 635C1026.99 622.32 1031.73 608.949 1032 596L1024 596z"/>
<path style="fill:#c97c82; stroke:none;" d="M1032.33 596.667L1032.67 597.333L1032.33 596.667M1214 596L1214 599L1215 599L1214 596M1023 597L1023 600L1024 600L1023 597M1223 600L1223 603L1224 603L1223 600M1022 601L1022 604L1023 604L1022 601M1031.33 602.667L1031.67 603.333L1031.33 602.667M1030.33 606.667L1030.67 607.333L1030.33 606.667M1021.33 607.667L1021.67 608.333L1021.33 607.667M1215 608L1216 609L1215 608z"/>
<path style="fill:#030203; stroke:none;" d="M1217 608.529C1191.93 614.274 1200.93 652.439 1226 646.468C1249.81 640.797 1240.75 603.087 1217 608.529z"/>
<path style="fill:#c97c82; stroke:none;" d="M1213 609L1214 610L1213 609M1211 610L1212 611L1211 610M1230 610L1231 611L1230 610M1020.33 611.667L1020.67 612.333L1020.33 611.667M1029.33 611.667L1029.67 612.333L1029.33 611.667z"/>
<path style="fill:#3b68ee; stroke:none;" d="M1234 613L1235 614L1234 613M1206 614L1207 615L1206 614z"/>
<path style="fill:#c97c82; stroke:none;" d="M1235 614L1236 615L1235 614M1028.33 615.667L1028.67 616.333L1028.33 615.667M1019.33 616.667L1019.67 617.333L1019.33 616.667M1018.33 620.667L1018.67 621.333L1018.33 620.667M1027.33 621.667L1027.67 622.333L1027.33 621.667M1026 624L1026 627L1027 627L1026 624M1017.33 626.667L1017.67 627.333L1017.33 626.667z"/>
<path style="fill:#3b68ee; stroke:none;" d="M1201 626L1202 627L1201 626M1240 626L1241 627L1240 626M1201 628L1202 629L1201 628M1240 628L1241 629L1240 628z"/>
<path style="fill:#c97c82; stroke:none;" d="M1201 629L1202 630L1201 629M1240 629L1241 630L1240 629M1016.33 630.667L1016.67 631.333L1016.33 630.667M1025.33 630.667L1025.67 631.333L1025.33 630.667M1024.33 634.667L1024.67 635.333L1024.33 634.667M1015 635L1015 638L1016 638L1015 635M1014 639L1014 642L1015 642L1014 639z"/>
<path style="fill:#3b68ee; stroke:none;" d="M1205 639L1206 640L1205 639M1236 639L1237 640L1236 639z"/>
<path style="fill:#c97c82; stroke:none;" d="M1023.33 640.667L1023.67 641.333L1023.33 640.667M1022.33 644.667L1022.67 645.333L1022.33 644.667M1013.33 645.667L1013.67 646.333L1013.33 645.667z"/>
<path style="fill:#3b68ee; stroke:none;" d="M1212 645L1188 737L1196 738L1212.47 677L1220 647L1212 645z"/>
<path style="fill:#c97c82; stroke:none;" d="M1211 647L1212 648L1211 647M1220 647L1221 648L1220 647M1012 648L1012 651L1013 651L1012 648M1021.33 649.667L1021.67 650.333L1021.33 649.667M1210 651L1211 652L1210 651M1219 651L1220 652L1219 651M1020.33 653.667L1020.67 654.333L1020.33 653.667M1011.33 654.667L1011.67 655.333L1011.33 654.667M1209.33 654.667L1209.67 655.333L1209.33 654.667M1218 654L1219 655L1218 654M1010.33 658.667L1010.67 659.333L1010.33 658.667M1208 658L1209 659L1208 658M1019.33 659.667L1019.67 660.333L1019.33 659.667M1018 662L1018 665L1019 665L1018 662M1207 662L1208 663L1207 662M1216 662L1217 663L1216 662M1009.33 664.667L1009.67 665.333L1009.33 664.667M1008.33 668.667L1008.67 669.333L1008.33 668.667M1017.33 668.667L1017.67 669.333L1017.33 668.667M1205.33 669.667L1205.67 670.333L1205.33 669.667M1214 669L1215 670L1214 669M1016.33 672.667L1016.67 673.333L1016.33 672.667M1007 673L1007 676L1008 676L1007 673M1204 673L1205 674L1204 673M1213 673L1214 674L1213 673M1212.33 676.667L1212.67 677.333L1212.33 676.667M1006.33 677.667L1006.67 678.333L1006.33 677.667M1203 677L1204 678L1203 677M1015.33 678.667L1015.67 679.333L1015.33 678.667M1014.33 682.667L1014.67 683.333L1014.33 682.667M1005.33 683.667L1005.67 684.333L1005.33 683.667M1201 684L1202 685L1201 684M1210 684L1211 685L1210 684M1004.33 687.667L1004.67 688.333L1004.33 687.667M1013.33 687.667L1013.67 688.333L1013.33 687.667M1209 688L1210 689L1209 688M1012.33 691.667L1012.67 692.333L1012.33 691.667M1208 691L1209 692L1208 691M1003.33 692.667L1003.67 693.333L1003.33 692.667M1199 692L1200 693L1199 692M1002.33 696.667L1002.67 697.333L1002.33 696.667M1011.33 697.667L1011.67 698.333L1011.33 697.667M1197 699L1198 700L1197 699M1206 699L1207 700L1206 699M1010 700L1010 703L1011 703L1010 700M1001.33 702.667L1001.67 703.333L1001.33 702.667M1196 703L1197 704L1196 703M1205 703L1206 704L1205 703M1000.33 706.667L1000.67 707.333L1000.33 706.667M1009.33 706.667L1009.67 707.333L1009.33 706.667M1204 706L1205 707L1204 706M1195 707L1196 708L1195 707M1008.33 710.667L1008.67 711.333L1008.33 710.667M1194 710L1195 711L1194 710M1203 710L1204 711L1203 710M999 711L999 714L1000 714L999 711M1193 714L1194 715L1193 714M1202 714L1203 715L1202 714M998.333 715.667L998.667 716.333L998.333 715.667M1007.33 716.667L1007.67 717.333L1007.33 716.667M997 720L997 723L998 723L997 720M1006.33 720.667L1006.67 721.333L1006.33 720.667M1191.33 721.667L1191.67 722.333L1191.33 721.667M1200 721L1201 722L1200 721M996 724L996 727L997 727L996 724M1005 725L1005 728L1006 728L1005 725M1190 725L1191 726L1190 725M1199 725L1200 726L1199 725M1198.33 728.667L1198.67 729.333L1198.33 728.667M1004 729L1004 733L1005 733L1004 729M1189 729L1190 730L1189 729M995 732L995 736L996 736L995 732M1187 736L1186 738L1187 736M1196 736L1197 737L1196 736z"/>
<path style="fill:#030203; stroke:none;" d="M1187 737.529C1161.73 743.319 1170.92 781.441 1196 775.468C1219.61 769.844 1210.84 732.066 1187 737.529z"/>
<path style="fill:#c97c82; stroke:none;" d="M1003 738L1003 742L1004 742L1003 738z"/>
<path style="fill:#3b68ee; stroke:none;" d="M1183 738L1184 739L1183 738z"/>
<path style="fill:#c97c82; stroke:none;" d="M1198 738L1199 739L1198 738M994 739L994 742L995 742L994 739z"/>
<path style="fill:#3b68ee; stroke:none;" d="M1181 739L1182 740L1181 739M1200 739L1201 740L1200 739z"/>
<path style="fill:#c97c82; stroke:none;" d="M1178 741L1179 742L1178 741z"/>
<path style="fill:#3b68ee; stroke:none;" d="M1205 743L1206 744L1205 743z"/>
<path style="fill:#c97c82; stroke:none;" d="M1002 745L1002 749L1003 749L1002 745M993 748L993 752L994 752L993 748M1001 754L1001 758L1002 758L1001 754M1171 754L1172 755L1171 754M992 755L992 758L993 758L992 755z"/>
<path style="fill:#3b68ee; stroke:none;" d="M1210 755L1210 758L1211 758L1210 755M1171 758L1172 759L1171 758z"/>
<path style="fill:#c97c82; stroke:none;" d="M1000 761L1000 765L1001 765L1000 761M991 764L991 768L992 768L991 764z"/>
<path style="fill:#3b68ee; stroke:none;" d="M1175 768L1176 769L1175 768z"/>
<path style="fill:#c97c82; stroke:none;" d="M1206 768L1207 769L1206 768M999 770L999 774L1000 774L999 770M990 771L990 774L991 774L990 771z"/>
<path style="fill:#3b68ee; stroke:none;" d="M1178 772C1171.22 796.073 1161.94 819.681 1152.85 842.985C1148.73 853.556 1136.29 856.467 1144 868L1145 868L1158.63 851.83L1168.43 826L1186 775L1178 772z"/>
<path style="fill:#c97c82; stroke:none;" d="M1177 773L1178 774L1177 773M998 777L998 781L999 781L998 777M1176 777L1177 778L1176 777M1185 777L1186 778L1185 777M989 780L989 784L990 784L989 780M1184 780L1185 781L1184 780M1175 781L1176 782L1175 781z"/>
<path style="fill:#030203; stroke:none;" d="M997 784.638C973.378 791.466 984.503 828.553 1008 822.072C1032.68 815.263 1021.97 777.421 997 784.638z"/>
<path style="fill:#c97c82; stroke:none;" d="M1174 784L1175 785L1174 784M1011 785L1012 786L1011 785M990 787L991 788L990 787M1173 787L1174 788L1173 787M1182 787L1183 788L1182 787M1181 790L1182 791L1181 790M1171 793L1172 794L1171 793M1180 793L1181 794L1180 793M1170 795L1171 796L1170 795M1169 798L1170 799L1169 798M1178 798L1179 799L1178 798M983 801L984 802L983 801M1022 801L1023 802L1022 801M1177 801L1178 802L1177 801M1167 803L1168 804L1167 803z"/>
<path style="fill:#3b68ee; stroke:none;" d="M983 804L984 805L983 804M1022 804L1023 805L1022 804z"/>
<path style="fill:#c97c82; stroke:none;" d="M984 809L985 810L984 809z"/>
<path style="fill:#3b68ee; stroke:none;" d="M1021 809L1022 810L1021 809z"/>
<path style="fill:#c97c82; stroke:none;" d="M1165 809L1166 810L1165 809M1174 809L1175 810L1174 809M1173 812L1174 813L1173 812z"/>
<path style="fill:#e03628; stroke:none;" d="M1114 863C1101.37 857.26 1089.38 850.032 1077 843.756C1068.65 839.521 1060.26 835.327 1052 830.917C1047.34 828.431 1042.69 825.931 1038 823.51C1032.91 820.882 1026.74 816.099 1021.01 815.244C1018.34 814.844 1014.24 816.886 1014.88 820.141C1016.12 826.414 1031.83 831.658 1037 834.247C1054.85 843.177 1072.48 852.805 1090 862.371C1099.73 867.684 1107 874.535 1114 863z"/>
<path style="fill:#c97c82; stroke:none;" d="M1020 814L1021 815L1020 814M1163 814L1164 815L1163 814M1172 814L1173 815L1172 814M1022 815L1023 816L1022 815M1024 816L1025 817L1024 816M1028 818L1029 819L1028 818M1013 820L1017 824L1013 820M1170 820L1171 821L1170 820M1033 821L1034 822L1033 821M1160 822L1161 823L1160 822M1037 823L1038 824L1037 823M1018 824L1019 825L1018 824M1020 825L1021 826L1020 825M1041 825L1042 826L1041 825M1159 825L1160 826L1159 825M1168 825L1169 826L1168 825M1022 826L1023 827L1022 826M1043 826L1044 827L1043 826M1045 827L1046 828L1045 827M1026 828L1027 829L1026 828M1047 828L1048 829L1047 828M1167 828L1168 829L1167 828M1049 829L1050 830L1049 829M1051 830L1054 832L1054 831L1051 830M1031 831L1032 832L1031 831M1166 831L1167 832L1166 831M1033 832L1034 833L1033 832M1055 832L1057 834L1055 832M1035 833L1036 834L1035 833M1156 833L1157 834L1156 833M1037 834L1038 835L1037 834M1059 834L1061 836L1059 834M1039 835L1040 836L1039 835M1041 836L1044 838L1044 837L1041 836M1155 836L1156 837L1155 836M1164 836L1165 837L1164 836M1064 837L1065 838L1064 837M1045 838L1047 840L1045 838M1066 838L1067 839L1066 838M1068 839L1069 840L1068 839M1163 839L1164 840L1163 839M1048 840L1048 841L1051 842L1048 840M1070 840L1071 841L1070 840M1072 841L1073 842L1072 841M1153 841L1154 842L1153 841M1052 842L1053 843L1052 842M1074 842L1075 843L1074 842M1054 843L1055 844L1054 843M1076 843L1077 844L1076 843M1056 844L1057 845L1056 844M1078 844L1079 845L1078 844M1060 846L1061 847L1060 846M1082 846L1084 848L1082 846M1151 847L1152 848L1151 847M1160 847L1161 848L1160 847M1065 849L1066 850L1065 849M1087 849L1088 850L1087 849M1149 849L1148 851L1149 849M1067 850L1068 851L1067 850M1159 850L1160 851L1159 850M1069 851L1070 852L1069 851M1091 851L1092 852L1091 851M1071 852L1072 853L1071 852M1093 852L1094 853L1093 852M1158 852L1159 853L1158 852M1073 853L1074 854L1073 853M1095 853L1096 854L1095 853M1075 854L1077 856L1075 854M1097 854L1098 855L1097 854M1156 854L1157 855L1156 854M1099 855L1100 856L1099 855M1079 856L1081 858L1079 856M1101 856L1104 858L1104 857L1101 856M1082 858L1082 859L1085 860L1082 858M1105 858L1107 860L1105 858M1122 858L1123 859L1122 858z"/>
<path style="fill:#030203; stroke:none;" d="M1123 858.529C1098.49 864.192 1107.78 902.472 1132 896.446C1156.6 890.324 1147.62 852.84 1123 858.529z"/>
<path style="fill:#3b68ee; stroke:none;" d="M1135 859L1136 860L1135 859z"/>
<path style="fill:#c97c82; stroke:none;" d="M1086 860L1087 861L1086 860M1109 860L1111 862L1109 860M1137 860L1138 861L1137 860M1088 861L1089 862L1088 861M1090 862L1091 863L1090 862M1112.67 862.333L1113.33 862.667L1112.67 862.333M1094 864L1096 866L1094 864M1146 865L1145 867L1146 865M1099 867L1100 868L1099 867M1101 868L1102 869L1101 868M1103 869L1104 870L1103 869M1105 870L1106 871L1105 870M1107.67 871.333L1108.33 871.667L1107.67 871.333z"/>
<path style="fill:#3b68ee; stroke:none;" d="M1108 873L1109 874L1108 873z"/>
<path style="fill:#c97c82; stroke:none;" d="M1108 881L1109 882L1108 881z"/>
<path style="fill:#3b68ee; stroke:none;" d="M1146 882L1147 883L1146 882z"/>
<path style="fill:#c97c82; stroke:none;" d="M1111 888L1112 889L1111 888M1111 890L1112 891L1111 890z"/>
<path style="fill:#3b68ee; stroke:none;" d="M1112 890L1099.7 904.17L1097.99 929L1096 968L1095.04 1033L1096.91 1121L1093 1144C1110.07 1143.94 1105 1110.29 1105 1098C1105 1047.73 1099.38 996.044 1105.29 946C1106.64 934.484 1103.56 919.934 1107.74 909C1109.58 904.195 1115.11 901.769 1116.82 897.039C1118.08 893.571 1114.41 891.558 1112 890z"/>
<path style="fill:#c97c82; stroke:none;" d="M1142.33 890.667L1142.67 891.333L1142.33 890.667M1151 890L1152 891L1151 890z"/>
<path style="fill:#e03628; stroke:none;" d="M1141 891C1131.2 899.263 1139.9 918.805 1142.73 930C1148.91 954.436 1156.23 980.063 1159.83 1005C1161.74 1018.23 1160.57 1031.92 1163 1045C1175.09 1038.81 1169.74 1020.99 1168.91 1009C1166.97 980.935 1156.23 951.439 1150.01 924C1147.87 914.558 1147.4 898.355 1141 891z"/>
<path style="fill:#c97c82; stroke:none;" d="M1143.33 893.667L1143.67 894.333L1143.33 893.667M1118 895L1119 896L1118 895z"/>
<path style="fill:#3b68ee; stroke:none;" d="M1135 895L1136 896L1135 895M1123 896L1124 897L1123 896z"/>
<path style="fill:#c97c82; stroke:none;" d="M1135 897L1135 900L1136 900L1135 897M1144.33 898.667L1144.67 899.333L1144.33 898.667M1101 901L1102 902L1101 901M1136.33 902.667L1136.67 903.333L1136.33 902.667M1145.33 902.667L1145.67 903.333L1145.33 902.667M1099 903L1100 904L1099 903M1108 906L1109 907L1108 906M1137.33 906.667L1137.67 907.333L1137.33 906.667M1146.33 907.667L1146.67 908.333L1146.33 907.667M1098 908L1098 912L1099 912L1098 908M1138.33 911.667L1138.67 912.333L1138.33 911.667M1147.33 911.667L1147.67 912.333L1147.33 911.667M1139.33 915.667L1139.67 916.333L1139.33 915.667M1148.33 916.667L1148.67 917.333L1148.33 916.667M1106 919L1106 925L1107 925L1106 919M1140.33 920.667L1140.67 921.333L1140.33 920.667M1149.33 920.667L1149.67 921.333L1149.33 920.667M1141.33 924.667L1141.67 925.333L1141.33 924.667M1150.33 925.667L1150.67 926.333L1150.33 925.667M1151.33 928.667L1151.67 929.333L1151.33 928.667M1097 929L1097 935L1098 935L1097 929M1142.33 929.667L1142.67 930.333L1142.33 929.667M1143.33 932.667L1143.67 933.333L1143.33 932.667M1152 933L1152 936L1153 936L1152 933z"/>
<path style="fill:#030203; stroke:none;" d="M1700 933L1701 934L1700 933z"/>
<path style="fill:#c97c82; stroke:none;" d="M1153.33 937.667L1153.67 938.333L1153.33 937.667M1144.33 938.667L1144.67 939.333L1144.33 938.667M1145.33 941.667L1145.67 942.333L1145.33 941.667M1154.33 942.667L1154.67 943.333L1154.33 942.667M1105 944L1105 947L1106 947L1105 944M1146.33 946.667L1146.67 947.333L1146.33 946.667M1155.33 946.667L1155.67 947.333L1155.33 946.667M1096 950L1096 953L1097 953L1096 950M1147.33 950.667L1147.67 951.333L1147.33 950.667M1156.33 951.667L1156.67 952.333L1156.33 951.667M1148.33 955.667L1148.67 956.333L1148.33 955.667M1157.33 955.667L1157.67 956.333L1157.33 955.667M1149.33 959.667L1149.67 960.333L1149.33 959.667M1158.33 960.667L1158.67 961.333L1158.33 960.667M1104 961L1104 968L1105 968L1104 961M1150.33 964.667L1150.67 965.333L1150.33 964.667M1159 964L1160 965L1159 964M1151 967L1151 970L1152 970L1151 967M1160 968L1160 971L1161 971L1160 968M1095 970L1095 976L1096 976L1095 970M1152.33 972.667L1152.67 973.333L1152.33 972.667M1161.33 972.667L1161.67 973.333L1161.33 972.667M1153.33 976.667L1153.67 977.333L1153.33 976.667M1162 977L1162 980L1163 980L1162 977M1163.33 981.667L1163.67 982.333L1163.33 981.667M1154.33 982.667L1154.67 983.333L1154.33 982.667M1103 985L1103 989L1104 989L1103 985M1155.33 985.667L1155.67 986.333L1155.33 985.667M1164.33 986.667L1164.67 987.333L1164.33 986.667M1156.33 990.667L1156.67 991.333L1156.33 990.667M1165.33 990.667L1165.67 991.333L1165.33 990.667M1157.33 994.667L1157.67 995.333L1157.33 994.667M1166.33 995.667L1166.67 996.333L1166.33 995.667M1103 996L1103 1008L1104 1008L1103 996M1167.33 998.667L1167.67 999.333L1167.33 998.667M1158.33 999.667L1158.67 1000.33L1158.33 999.667M1159 1002L1159 1005L1160 1005L1159 1002M1168.33 1004.67L1168.67 1005.33L1168.33 1004.67M1160 1010L1160 1017L1161 1017L1160 1010M1169 1011L1169 1019L1170 1019L1169 1011M1161 1023L1161 1031L1162 1031L1161 1023M1170 1030L1170 1038L1171 1038L1170 1030M1095 1037L1095 1061L1096 1061L1095 1037z"/>
<path style="fill:#030203; stroke:none;" d="M1170 1041.56C1146.01 1047.74 1156.27 1085.39 1180 1079.07C1204.75 1072.48 1194.93 1035.13 1170 1041.56z"/>
<path style="fill:#c97c82; stroke:none;" d="M1181 1041L1182 1042L1181 1041M1162 1042L1162 1045L1163 1045L1162 1042z"/>
<path style="fill:#3b68ee; stroke:none;" d="M1166 1042L1167 1043L1166 1042M1160 1047L1161 1048L1160 1047z"/>
<path style="fill:#c97c82; stroke:none;" d="M1194 1064L1195 1065L1194 1064z"/>
<path style="fill:#3b68ee; stroke:none;" d="M1193 1067L1194 1068L1193 1067z"/>
<path style="fill:#c97c82; stroke:none;" d="M1104 1069L1104 1088L1105 1088L1104 1069z"/>
<path style="fill:#3b68ee; stroke:none;" d="M1159 1071L1160 1072L1159 1071z"/>
<path style="fill:#e03628; stroke:none;" d="M1190 1072L1184 1077C1208.83 1107.09 1240.43 1133.43 1268 1161L1269 1161L1274 1156L1274 1155L1274 1154L1233 1113.67L1192 1072L1190 1072z"/>
<path style="fill:#c97c82; stroke:none;" d="M1192 1073L1193 1074L1192 1073M1194 1075L1195 1076L1194 1075M1196 1077L1197 1078L1196 1077M1185 1078L1186 1079L1185 1078z"/>
<path style="fill:#3b68ee; stroke:none;" d="M1172 1079L1173 1080L1172 1079z"/>
<path style="fill:#c97c82; stroke:none;" d="M1198 1079L1199 1080L1198 1079M1187 1080L1188 1081L1187 1080M1200 1081L1201 1082L1200 1081M1189 1082L1190 1083L1189 1082M1202 1083L1203 1084L1202 1083M1204 1085L1205 1086L1204 1085M1206 1087L1207 1088L1206 1087M1208 1089L1209 1090L1208 1089M1197 1090L1198 1091L1197 1090M1210 1091L1211 1092L1210 1091M1199 1092L1200 1093L1199 1092M1212 1093L1213 1094L1212 1093M1201 1094L1202 1095L1201 1094M1214 1095L1215 1096L1214 1095M1203 1096L1204 1097L1203 1096M1216 1097L1217 1098L1216 1097M1205 1098L1206 1099L1205 1098M1218 1099L1219 1100L1218 1099M1207 1100L1208 1101L1207 1100M1220 1101L1221 1102L1220 1101M1209 1102L1210 1103L1209 1102M1222 1103L1223 1104L1222 1103M1211 1104L1212 1105L1211 1104M1224 1105L1225 1106L1224 1105M1213 1106L1214 1107L1213 1106M1226 1107L1227 1108L1226 1107M1215 1108L1216 1109L1215 1108M1228 1109L1229 1110L1228 1109M1096 1110L1096 1120L1097 1120L1096 1110M1217 1110L1218 1111L1217 1110M1230 1111L1231 1112L1230 1111M1219 1112L1220 1113L1219 1112M1232 1113L1233 1114L1232 1113M1221 1114L1222 1115L1221 1114M1234 1115L1235 1116L1234 1115M1223 1116L1224 1117L1223 1116M1236 1117L1237 1118L1236 1117M1225 1118L1226 1119L1225 1118M1238 1119L1239 1120L1238 1119M1227 1120C1236.97 1134.16 1253.84 1151.03 1268 1161C1258.03 1146.84 1241.16 1129.97 1227 1120M1240 1121L1241 1122L1240 1121M1242 1123L1243 1124L1242 1123M1096 1124L1097 1125L1096 1124M1244 1125L1245 1126L1244 1125M1246 1127L1247 1128L1246 1127M1104 1128L1105 1129L1104 1128M1095 1129L1096 1130L1095 1129M1248 1129L1249 1130L1248 1129M1250 1131L1251 1132L1250 1131M1103 1133L1104 1134L1103 1133M1252 1133L1253 1134L1252 1133M1254 1135L1255 1136L1254 1135M1102.33 1137.67L1102.67 1138.33L1102.33 1137.67M1256 1137L1257 1138L1256 1137M1093 1139L1094 1140L1093 1139M1258 1139L1259 1140L1258 1139M1260 1141L1261 1142L1260 1141M1092 1143L1091 1145L1092 1143M1101 1143L1102 1144L1101 1143M1262 1143L1263 1144L1262 1143z"/>
<path style="fill:#030203; stroke:none;" d="M1092 1144.53C1068.15 1150.33 1078.55 1187.71 1102 1182.09C1127.26 1176.04 1117.36 1138.37 1092 1144.53z"/>
<path style="fill:#c97c82; stroke:none;" d="M1264 1145L1265 1146L1264 1145z"/>
<path style="fill:#3b68ee; stroke:none;" d="M1109 1147L1110 1148L1109 1147z"/>
<path style="fill:#c97c82; stroke:none;" d="M1266 1147L1267 1148L1266 1147M1268 1149L1269 1150L1268 1149M1075 1150L1073 1154L1074 1154L1075 1150M1113 1151L1114 1152L1113 1151M1270 1151L1271 1152L1270 1151M1281 1152L1282 1153L1281 1152z"/>
<path style="fill:#030203; stroke:none;" d="M1282 1152.47C1256.11 1157.06 1264.15 1196.24 1290 1190.61C1313.4 1185.51 1305.47 1148.31 1282 1152.47z"/>
<path style="fill:#c97c82; stroke:none;" d="M1288 1152L1289 1153L1288 1152M1272 1153L1273 1154L1272 1153z"/>
<path style="fill:#3b68ee; stroke:none;" d="M1272 1156L1273 1157L1272 1156M1266 1165L1267 1166L1266 1165z"/>
<path style="fill:#c97c82; stroke:none;" d="M1116 1168L1117 1169L1116 1168M1075.33 1170.67L1075.67 1171.33L1075.33 1170.67M1265 1170L1266 1171L1265 1170z"/>
<path style="fill:#3b68ee; stroke:none;" d="M1304 1170L1305 1171L1304 1170M1076 1172L1077 1173L1076 1172M1110 1180L1142 1183.83L1158.67 1186.94L1170 1203L1189 1233L1197 1230C1191.18 1217.7 1182.31 1206.66 1175.31 1195C1172.43 1190.2 1169.28 1182.14 1164.48 1179.02C1158.31 1175 1146.18 1175.87 1139 1174.87C1128.59 1173.42 1115.27 1168.22 1110 1180z"/>
<path style="fill:#c97c82; stroke:none;" d="M1120.67 1172.33L1121.33 1172.67L1120.67 1172.33z"/>
<path style="fill:#3b68ee; stroke:none;" d="M1265 1172L1266 1173L1265 1172z"/>
<path style="fill:#c97c82; stroke:none;" d="M1128.67 1173.33L1129.33 1173.67L1128.67 1173.33z"/>
<path style="fill:#3b68ee; stroke:none;" d="M1304 1173L1305 1174L1304 1173z"/>
<path style="fill:#c97c82; stroke:none;" d="M1136.67 1174.33L1137.33 1174.67L1136.67 1174.33M1143 1175L1143 1176L1146 1176L1143 1175M1152.67 1176.33L1153.33 1176.67L1152.67 1176.33z"/>
<path style="fill:#3b68ee; stroke:none;" d="M1084 1177L1085 1178L1084 1177z"/>
<path style="fill:#c97c82; stroke:none;" d="M1158 1177L1158 1178L1161 1178L1158 1177M1108.67 1179.33L1109.33 1179.67L1108.67 1179.33M1165 1179L1166 1180L1165 1179M1115 1180L1115 1181L1118 1181L1115 1180M1267 1180L1268 1181L1267 1180z"/>
<path style="fill:#3b68ee; stroke:none;" d="M1302 1180L1303 1181L1302 1180z"/>
<path style="fill:#c97c82; stroke:none;" d="M1123 1181L1124 1182L1123 1181z"/>
<path style="fill:#3b68ee; stroke:none;" d="M1095 1182L1096 1183L1095 1182z"/>
<path style="fill:#c97c82; stroke:none;" d="M1131.67 1182.33L1132.33 1182.67L1131.67 1182.33M1301 1182L1303 1184L1301 1182M1139 1183L1140 1184L1139 1183z"/>
<path style="fill:#e03628; stroke:none;" d="M1296 1188L1296 1189L1359 1240.47L1394 1266L1398 1260C1391.97 1252.19 1381.84 1246.71 1374 1240.77L1322 1201.37C1314.31 1195.56 1305.29 1179.61 1296 1188z"/>
<path style="fill:#c97c82; stroke:none;" d="M1147.67 1184.33L1148.33 1184.67L1147.67 1184.33M1155 1185L1156 1186L1155 1185M1304 1185L1305 1186L1304 1185M1170 1187L1171 1188L1170 1187M1306 1187L1307 1188L1306 1187M1295 1188L1309 1202L1295 1188M1161 1189L1162 1190L1161 1189M1308 1189L1309 1190L1308 1189M1172 1190L1173 1191L1172 1190M1310 1191L1311 1192L1310 1191M1163 1192L1164 1193L1163 1192M1312 1193L1315 1196L1312 1193M1165 1195L1166 1196L1165 1195M1175 1195L1176 1196L1175 1195M1176 1197L1178 1199L1176 1197M1316 1197L1317 1198L1316 1197M1167 1198L1168 1199L1167 1198M1318 1198L1321 1201L1318 1198M1323 1202L1325 1204L1323 1202M1170 1203L1171 1204L1170 1203M1180 1203L1181 1204L1180 1203M1310 1203L1313 1206L1310 1203M1327 1205L1329 1207L1327 1205M1182 1206L1183 1207L1182 1206M1314 1206L1316 1208L1314 1206M1317 1208L1318 1209L1317 1208M1331 1208L1333 1210L1331 1208M1184 1209L1185 1210L1184 1209M1319 1210L1321 1212L1319 1210M1175 1211L1176 1212L1175 1211M1335 1211L1337 1213L1335 1211M1322 1212L1324 1214L1322 1212M1177 1214L1178 1215L1177 1214M1187 1214L1188 1215L1187 1214M1339 1214L1341 1216L1339 1214M1327 1216L1329 1218L1327 1216M1179 1217L1180 1218L1179 1217M1189 1217L1190 1218L1189 1217M1343 1217L1345 1219L1343 1217M1180 1219L1182 1221L1180 1219M1190 1219L1191 1220L1190 1219M1331 1219L1332 1220L1331 1219M1347 1220L1349 1222L1347 1220M1182 1222L1183 1223L1182 1222M1192 1222L1193 1223L1192 1222M1335 1222L1337 1224L1335 1222M1352 1224L1354 1226L1352 1224M1194 1225L1195 1226L1194 1225M1339 1225L1341 1227L1339 1225M1355 1226L1357 1228L1355 1226M1343 1228L1345 1230L1343 1228M1358 1229L1359 1230L1358 1229M1187 1230L1188 1231L1187 1230z"/>
<path style="fill:#030203; stroke:none;" d="M1195 1230.53C1171.38 1236.16 1180.3 1273.61 1204 1268.48C1229.36 1262.99 1220.22 1224.53 1195 1230.53z"/>
<path style="fill:#c97c82; stroke:none;" d="M1360 1230L1362 1232L1360 1230M1347 1231L1349 1233L1347 1231M1363 1232L1365 1234L1363 1232M1211 1233L1212 1234L1211 1233M1351 1234L1353 1236L1351 1234M1366 1235L1367 1236L1366 1235M1368 1236L1370 1238L1368 1236M1356 1238L1357 1239L1356 1238M1371 1238L1375 1242L1371 1238M1217 1240L1218 1241L1217 1240M1359 1240L1361 1242L1359 1240M1376 1242L1378 1244L1376 1242M1364 1244L1366 1246L1364 1244z"/>
<path style="fill:#3b68ee; stroke:none;" d="M1177 1246L1177 1250L1178 1250L1177 1246z"/>
<path style="fill:#c97c82; stroke:none;" d="M1367 1246L1369 1248L1367 1246M1381 1246L1383 1248L1381 1246M1180 1248L1180 1251L1181 1251L1180 1248M1384 1248L1386 1250L1384 1248M1177 1250L1179 1253L1177 1250M1372 1250L1374 1252L1372 1250z"/>
<path style="fill:#3b68ee; stroke:none;" d="M1219 1251L1220 1252L1219 1251z"/>
<path style="fill:#c97c82; stroke:none;" d="M1375 1252L1376 1253L1375 1252M1389 1252L1391 1254L1389 1252M1377 1254L1379 1256L1377 1254z"/>
<path style="fill:#030203; stroke:none;" d="M1407 1254.53C1382.25 1260.21 1390.97 1298.25 1416 1292.47C1440.14 1286.89 1430.98 1249.02 1407 1254.53z"/>
<path style="fill:#3b68ee; stroke:none;" d="M1181 1255L1182 1256L1181 1255z"/>
<path style="fill:#c97c82; stroke:none;" d="M1393 1255L1394 1256L1393 1255M1380 1256L1382 1258L1380 1256M1420 1256L1421 1257L1420 1256M1383 1258L1384 1259L1383 1258M1397 1258L1398 1259L1397 1258M1423 1258L1424 1259L1423 1258M1385 1260L1387 1262L1385 1260M1176 1261L1177 1262L1176 1261z"/>
<path style="fill:#030203; stroke:none;" d="M1176 1262L1177 1263L1176 1262z"/>
<path style="fill:#c97c82; stroke:none;" d="M1185 1262L1186 1263L1185 1262M1388 1262L1390 1264L1388 1262z"/>
<path style="fill:#3b68ee; stroke:none;" d="M1186 1263L1187 1264L1186 1263M1212 1264L1213 1265L1212 1264M1391 1264L1392 1265L1391 1264z"/>
<path style="fill:#c97c82; stroke:none;" d="M1190 1266L1191 1267L1190 1266z"/>
<path style="fill:#3b68ee; stroke:none;" d="M1207 1267L1208 1268L1207 1267M1197 1269C1197 1280.97 1195.75 1293.06 1194.91 1305C1194.51 1310.68 1192.67 1317.42 1194.59 1323C1200.88 1341.29 1223.67 1349.04 1222 1370L1230 1371C1237.43 1347.52 1209.6 1338.59 1203.11 1319C1201.38 1313.8 1203.32 1306.34 1203.83 1301C1204.86 1290.21 1205.78 1278.84 1206 1268L1197 1269z"/>
<path style="fill:#c97c82; stroke:none;" d="M1205.33 1274.67L1205.67 1275.33L1205.33 1274.67M1196 1277L1196 1280L1197 1280L1196 1277z"/>
<path style="fill:#3b68ee; stroke:none;" d="M1392 1279L1393 1280L1392 1279M1429 1279L1430 1280L1429 1279z"/>
<path style="fill:#c97c82; stroke:none;" d="M1429 1280L1430 1281L1429 1280z"/>
<path style="fill:#e03628; stroke:none;" d="M1428 1283L1424 1289C1444.31 1302.7 1467.2 1322.1 1490 1331.01C1500.64 1335.16 1513.77 1336.1 1525 1338.08C1538.35 1340.45 1551.57 1344.19 1565 1346L1567 1338L1494 1323.19L1463 1303.69L1428 1283z"/>
<path style="fill:#c97c82; stroke:none;" d="M1430 1285L1430 1286L1434 1286L1430 1285M1204 1286L1204 1291L1205 1291L1204 1286M1437 1287L1438 1288L1437 1287M1439 1288L1441 1290L1439 1288M1424 1289L1425 1290L1424 1289M1426 1290L1428 1292L1426 1290M1442 1290L1444 1292L1442 1290M1195 1292L1195 1297L1196 1297L1195 1292z"/>
<path style="fill:#3b68ee; stroke:none;" d="M1416 1292L1417 1293L1416 1292z"/>
<path style="fill:#c97c82; stroke:none;" d="M1429 1292L1431 1294L1429 1292M1445 1292L1447 1294L1445 1292M1432 1294L1433 1295L1432 1294M1448 1294L1449 1295L1448 1294M1435 1296L1436 1297L1435 1296M1451 1296L1453 1298L1451 1296M1437 1297L1440 1299L1440 1298L1437 1297M1454 1298L1455 1299L1454 1298M1457 1300L1458 1301L1457 1300M1443 1301L1444 1302L1443 1301M1459 1301L1460 1302L1459 1301M1445 1302L1447 1304L1445 1302M1203 1303L1203 1306L1204 1306L1203 1303M1462 1303L1463 1304L1462 1303M1449 1305L1450 1306L1449 1305M1465 1305L1466 1306L1465 1305M1451 1306L1453 1308L1451 1306M1467 1306L1469 1308L1467 1306M1194.33 1307.67L1194.67 1308.33L1194.33 1307.67M1454 1308L1456 1310L1454 1308M1470 1308L1472 1310L1470 1308M1457 1310L1459 1312L1457 1310M1473 1310L1475 1312L1473 1310M1460 1312L1461 1313L1460 1312M1476 1312L1478 1314L1476 1312M1463 1314L1464 1315L1463 1314M1479 1314L1481 1316L1479 1314M1202 1316L1202 1320L1203 1320L1202 1316M1466 1316L1467 1317L1466 1316M1482 1316L1483 1317L1482 1316M1469 1318L1470 1319L1469 1318M1471 1319L1473 1321L1471 1319M1487 1319L1489 1321L1487 1319M1490 1321L1491 1322L1490 1321M1205 1323L1206 1324L1205 1323M1477 1323L1478 1324L1477 1323M1493 1323L1493 1324L1496 1324L1493 1323M1479 1324L1481 1326L1479 1324M1500.67 1324.33L1501.33 1324.67L1500.67 1324.33M1504.67 1325.33L1505.33 1325.67L1504.67 1325.33M1482 1326L1484 1328L1482 1326M1510.67 1326.33L1511.33 1326.67L1510.67 1326.33M1197 1327L1198 1328L1197 1327M1208 1327L1210 1329L1208 1327M1514.67 1327.33L1515.33 1327.67L1514.67 1327.33M1485 1328L1487 1330L1485 1328M1520.67 1328.33L1521.33 1328.67L1520.67 1328.33z"/>
<path style="fill:#3b68ee; stroke:none;" d="M1580 1328L1581 1329L1580 1328z"/>
<path style="fill:#030203; stroke:none;" d="M1563 1354L1564 1358L1565 1358L1565 1354C1567.48 1358.17 1569.65 1361.97 1574 1364.47C1577.39 1366.41 1581.13 1367.1 1585 1366.96C1622.13 1365.59 1593.89 1307.03 1569.22 1335.04C1564.09 1340.88 1567.19 1348.47 1563 1354z"/>
<path style="fill:#3b68ee; stroke:none;" d="M1587 1328L1588 1329L1587 1328z"/>
<path style="fill:#c97c82; stroke:none;" d="M1524.67 1329.33L1525.33 1329.67L1524.67 1329.33M1488 1330L1491 1332L1491 1331L1488 1330M1530.67 1330.33L1531.33 1330.67L1530.67 1330.33M1534 1331L1534 1332L1537 1332L1534 1331M1201 1332L1202 1333L1201 1332M1212 1332L1213 1333L1212 1332M1494 1332L1494 1333L1497 1333L1494 1332M1540 1332L1540 1333L1543 1333L1540 1332M1498 1333L1498 1334L1501 1334L1498 1333M1544 1333L1544 1334L1547 1334L1544 1333M1597 1333L1599 1335L1597 1333M1504 1334L1504 1335L1507 1335L1504 1334M1550 1334L1550 1335L1553 1335L1550 1334M1509.67 1335.33L1510.33 1335.67L1509.67 1335.33M1555.67 1335.33L1556.33 1335.67L1555.67 1335.33M1515.67 1336.33L1516.33 1336.67L1515.67 1336.33M1561.67 1336.33L1562.33 1336.67L1561.67 1336.33M1205 1337L1206 1338L1205 1337M1216 1337L1217 1338L1216 1337M1519 1337L1519 1338L1522 1338L1519 1337M1565.67 1337.33L1566.33 1337.67L1565.67 1337.33M1525 1338L1525 1339L1528 1339L1525 1338M1529 1339L1529 1340L1532 1340L1529 1339M1535 1340L1535 1341L1538 1341L1535 1340M1540.67 1341.33L1541.33 1341.67L1540.67 1341.33M1209 1342L1210 1343L1209 1342M1220 1342L1221 1343L1220 1342M1546.67 1342.33L1547.33 1342.67L1546.67 1342.33M1550.67 1343.33L1551.33 1343.67L1550.67 1343.33M1556.67 1344.33L1557.33 1344.67L1556.67 1344.33M1603 1344L1604 1345L1603 1344M1560.67 1345.33L1561.33 1345.67L1560.67 1345.33z"/>
<path style="fill:#e03628; stroke:none;" d="M1604 1345C1603 1358.31 1624.96 1358.18 1636 1359.87C1643.49 1361.01 1654.26 1361.57 1660.91 1365.31C1668.4 1369.54 1674.93 1378.93 1681 1385C1696.51 1400.51 1711.52 1416.51 1727 1432C1734.19 1439.19 1741.34 1448.6 1750 1454.01C1752.55 1455.6 1757.48 1458.39 1760.53 1456.91C1762.67 1455.86 1764.12 1452.71 1762.34 1450.78C1759.79 1448.01 1755.29 1447.2 1752.42 1444.61C1742.98 1436.09 1734.73 1426.17 1725.96 1417C1712.47 1402.89 1698.79 1388.8 1685 1375C1679.8 1369.8 1674.35 1361.78 1667.96 1358.14C1662.41 1354.98 1654.2 1354.79 1648 1353.55C1633.35 1350.62 1618.68 1347.77 1604 1345z"/>
<path style="fill:#c97c82; stroke:none;" d="M1606.67 1345.33L1607.33 1345.67L1606.67 1345.33M1212 1346L1213 1347L1212 1346M1556 1346L1558 1348L1558 1346L1556 1346M1564 1346L1565 1347L1564 1346M1612.67 1346.33L1613.33 1346.67L1612.67 1346.33M1224 1347L1225 1348L1224 1347z"/>
<path style="fill:#3b68ee; stroke:none;" d="M1564.33 1347.67L1564.67 1348.33L1564.33 1347.67z"/>
<path style="fill:#c97c82; stroke:none;" d="M1616 1347L1616 1348L1619 1348L1616 1347M1622 1348L1622 1349L1625 1349L1622 1348M1626 1349L1626 1350L1629 1350L1626 1349M1632 1350L1632 1351L1635 1351L1632 1350M1216 1351L1218 1353L1216 1351M1637.67 1351.33L1638.33 1351.67L1637.67 1351.33M1228 1352L1229 1353L1228 1352M1643.67 1352.33L1644.33 1352.67L1643.67 1352.33M1603 1353L1604 1354L1603 1353M1647.67 1353.33L1648.33 1353.67L1647.67 1353.33M1562 1354L1563 1355L1562 1354M1607 1354L1607 1355L1610 1355L1607 1354M1653.67 1354.33L1654.33 1354.67L1653.67 1354.33M1612.67 1355.33L1613.33 1355.67L1612.67 1355.33M1657 1355L1657 1356L1660 1356L1657 1355M1220 1356L1221 1357L1220 1356z"/>
<path style="fill:#3b68ee; stroke:none;" d="M1563 1356L1564 1357L1563 1356M1601 1356L1602 1357L1601 1356z"/>
<path style="fill:#c97c82; stroke:none;" d="M1618.67 1356.33L1619.33 1356.67L1618.67 1356.33M1663 1356L1663 1357L1666 1357L1663 1356M1563 1357L1564 1358L1563 1357M1622.67 1357.33L1623.33 1357.67L1622.67 1357.33M1667 1357L1668 1358L1667 1357M1232 1358L1233 1359L1232 1358M1628.67 1358.33L1629.33 1358.67L1628.67 1358.33M1632.67 1359.33L1633.33 1359.67L1632.67 1359.33M1223 1360L1224 1361L1223 1360M1638 1360L1638 1361L1641 1361L1638 1360M1642 1361L1642 1362L1645 1362L1642 1361M1648 1362L1648 1363L1651 1363L1648 1362M1672 1362L1686 1376L1672 1362z"/>
<path style="fill:#3b68ee; stroke:none;" d="M1572 1363L1573 1364L1572 1363z"/>
<path style="fill:#c97c82; stroke:none;" d="M1653.67 1363.33L1654.33 1363.67L1653.67 1363.33M1231 1364L1232 1365L1231 1364M1659.67 1364.33L1660.33 1364.67L1659.67 1364.33M1222 1365L1223 1366L1222 1365M1578 1366L1579 1367L1578 1366z"/>
<path style="fill:#3b68ee; stroke:none;" d="M1589 1366L1590 1367L1589 1366z"/>
<path style="fill:#c97c82; stroke:none;" d="M1663 1366L1664 1367L1663 1366z"/>
<path style="fill:#030203; stroke:none;" d="M1218 1370.64C1193.75 1377.65 1204.89 1414.71 1229 1408.07C1253.4 1401.35 1242.29 1363.62 1218 1370.64z"/>
<path style="fill:#c97c82; stroke:none;" d="M1230 1370L1231 1371L1230 1370z"/>
<path style="fill:#3b68ee; stroke:none;" d="M1215 1371L1216 1372L1215 1371z"/>
<path style="fill:#c97c82; stroke:none;" d="M1213 1372L1214 1373L1213 1372M1237 1375L1238 1376L1237 1375z"/>
<path style="fill:#3b68ee; stroke:none;" d="M1240 1379L1241 1380L1240 1379z"/>
<path style="fill:#c97c82; stroke:none;" d="M1694 1385L1695 1386L1694 1385M1696 1387L1697 1388L1696 1387M1698 1389L1699 1390L1698 1389M1686 1390C1693.92 1401.25 1706.75 1414.08 1718 1422C1710.08 1410.75 1697.25 1397.92 1686 1390M1700 1391L1701 1392L1700 1391M1199 1393L1200 1397L1201 1397L1201 1393L1199 1393z"/>
<path style="fill:#3b68ee; stroke:none;" d="M1204 1393L1205 1394L1204 1393z"/>
<path style="fill:#c97c82; stroke:none;" d="M1702 1393L1703 1394L1702 1393M1242 1394L1243 1395L1242 1394z"/>
<path style="fill:#3b68ee; stroke:none;" d="M1199.33 1395.67L1199.67 1396.33L1199.33 1395.67z"/>
<path style="fill:#c97c82; stroke:none;" d="M1704 1395L1714 1405L1704 1395z"/>
<path style="fill:#030203; stroke:none;" d="M1199.33 1397.67L1199.67 1398.33L1199.33 1397.67z"/>
<path style="fill:#c97c82; stroke:none;" d="M1200 1398L1199 1400L1200 1398M1715 1406L1716 1407L1715 1406z"/>
<path style="fill:#3b68ee; stroke:none;" d="M1216 1408L1209.83 1495L1204 1542L1212 1543L1220.09 1454L1224 1409L1216 1408z"/>
<path style="fill:#c97c82; stroke:none;" d="M1227 1408L1228 1409L1227 1408M1717 1408L1718 1409L1717 1408M1224 1409L1225 1410L1224 1409M1215.33 1410.67L1215.67 1411.33L1215.33 1410.67M1719 1410L1720 1411L1719 1410M1721 1412L1722 1413L1721 1412M1723 1414L1724 1415L1723 1414M1223 1415L1224 1416L1223 1415M1214.33 1416.67L1214.67 1417.33L1214.33 1416.67M1222.33 1421.67L1222.67 1422.33L1222.33 1421.67M1730 1422L1744 1436L1730 1422M1213 1424L1213 1430L1214 1430L1213 1424M1221 1436L1221 1439L1222 1439L1221 1436M1734 1439L1735 1440L1734 1439M1212 1441L1212 1444L1213 1444L1212 1441M1736 1441L1737 1442L1736 1441M1738 1443L1739 1444L1738 1443z"/>
<path style="fill:#030203; stroke:none;" d="M1776 1444.52C1750.36 1449.96 1759.45 1488.64 1785 1482.47C1808.47 1476.8 1799.58 1439.52 1776 1444.52z"/>
<path style="fill:#3b68ee; stroke:none;" d="M1783 1444L1784 1445L1783 1444z"/>
<path style="fill:#c97c82; stroke:none;" d="M1740 1445L1741 1446L1740 1445M1752 1445L1753 1446L1752 1445z"/>
<path style="fill:#3b68ee; stroke:none;" d="M1772 1445L1773 1446L1772 1445z"/>
<path style="fill:#c97c82; stroke:none;" d="M1742 1447L1743 1448L1742 1447M1756 1447L1757 1448L1756 1447M1758 1448L1758 1449L1762 1450L1762 1449L1758 1448M1744 1449L1749 1454L1744 1449M1220 1450L1220 1456L1221 1456L1220 1450M1763 1450L1764 1451L1763 1450M1750 1454L1751 1455L1750 1454M1752 1455L1753 1456L1752 1455M1797 1455L1798 1456L1797 1455M1755 1456L1756 1457L1755 1456M1757 1457L1758 1458L1757 1457M1211 1458L1211 1464L1212 1464L1211 1458M1760 1458L1761 1459L1760 1458M1799.67 1465.33L1800.33 1465.67L1799.67 1465.33z"/>
<path style="fill:#e03628; stroke:none;" d="M1799 1466L1797 1473C1821.29 1486.69 1841.62 1506.56 1862.91 1524.71C1871.52 1532.05 1881.91 1544.98 1893 1548L1897 1543C1891.19 1534.92 1881.78 1528.84 1874.17 1522.47C1859.88 1510.53 1845.7 1498.42 1831.58 1486.27C1822.92 1478.82 1810.64 1467.79 1799 1466z"/>
<path style="fill:#3b68ee; stroke:none;" d="M1760 1467L1761 1468L1760 1467z"/>
<path style="fill:#c97c82; stroke:none;" d="M1804 1467L1808 1471L1804 1467M1219 1470L1219 1473L1220 1473L1219 1470M1810 1471L1811 1472L1810 1471M1812 1472L1813 1473L1812 1472M1797 1473L1798 1474L1797 1473M1814 1473L1815 1474L1814 1473M1799 1474L1800 1475L1799 1474M1210 1475L1210 1478L1211 1478L1210 1475M1801 1475L1802 1476L1801 1475M1818 1475L1819 1476L1818 1475M1794 1476L1795 1477L1794 1476M1804 1476L1804 1477L1807 1478L1804 1476M1792 1478L1793 1479L1792 1478M1822 1478L1826 1482L1822 1478M1811 1480L1812 1481L1811 1480M1813 1482L1815 1484L1813 1482M1827 1482L1828 1483L1827 1482M1218 1484L1218 1490L1219 1490L1218 1484M1829 1484L1831 1486L1829 1484M1818 1486L1821 1489L1818 1486M1832 1487L1833 1488L1832 1487M1836 1490L1839 1493L1836 1490M1209 1492L1209 1498L1210 1498L1209 1492M1825 1492L1827 1494L1825 1492M1841 1494L1842 1495L1841 1494M1828 1495L1829 1496L1828 1495M1843 1496L1845 1498L1843 1496M1832 1498L1835 1501L1832 1498M1846 1499L1847 1500L1846 1499M1849 1501L1852 1504L1849 1501M1837 1502L1838 1503L1837 1502M1217 1504L1217 1507L1218 1507L1217 1504M1839 1504L1841 1506L1839 1504M1855 1506L1859 1510L1855 1506M1842 1507L1843 1508L1842 1507M1208 1508L1209 1509L1208 1508M1846 1510L1848 1512L1846 1510M1216 1512L1216 1515L1217 1515L1216 1512M1862 1512L1865 1515L1862 1512M1851 1514L1852 1515L1851 1514M1207.33 1515.67L1207.67 1516.33L1207.33 1515.67M1853 1516L1855 1518L1853 1516M1867 1516L1868 1517L1867 1516M1869 1518L1871 1520L1869 1518M1856 1519L1857 1520L1856 1519M1215 1520L1216 1521L1215 1520M1859 1521L1862 1524L1859 1521M1872 1521L1873 1522L1872 1521M1206 1522L1207 1523L1206 1522M1875 1523L1878 1526L1875 1523M1214.33 1526.67L1214.67 1527.33L1214.33 1526.67M1865 1526L1866 1527L1865 1526M1205.33 1528.67L1205.67 1529.33L1205.33 1528.67M1867 1528L1869 1530L1867 1528M1881 1528L1885 1532L1881 1528M1213 1534L1214 1535L1213 1534M1874 1534L1877 1537L1874 1534M1204 1535L1205 1536L1204 1535M1889 1535L1891 1537L1889 1535M1879 1538L1880 1539L1879 1538z"/>
<path style="fill:#3b68ee; stroke:none;" d="M1904 1539L1905 1540L1904 1539z"/>
<path style="fill:#030203; stroke:none;" d="M1905 1539.47C1879.99 1544.24 1888.02 1582.16 1913 1577.67C1937.33 1573.3 1929.48 1534.8 1905 1539.47z"/>
<path style="fill:#c97c82; stroke:none;" d="M1212 1540L1213 1541L1212 1540M1881 1540L1883 1542L1881 1540M1895 1540L1898 1543L1895 1540M1201 1542L1202 1543L1201 1542z"/>
<path style="fill:#030203; stroke:none;" d="M1202 1542.47C1176.77 1547.28 1184.8 1585.21 1210 1580.67C1234.44 1576.27 1226.24 1537.85 1202 1542.47z"/>
<path style="fill:#c97c82; stroke:none;" d="M1886 1544L1888 1546L1886 1544z"/>
<path style="fill:#3b68ee; stroke:none;" d="M1886 1548L1887 1549L1886 1548z"/>
<path style="fill:#030203; stroke:none;" d="M1887 1548L1887 1553L1888 1553L1887 1548z"/>
<path style="fill:#c97c82; stroke:none;" d="M1891 1548L1892 1549L1891 1548M1886.33 1549.67L1886.67 1550.33L1886.33 1549.67z"/>
<path style="fill:#3b68ee; stroke:none;" d="M1891 1549L1892 1550L1891 1549z"/>
<path style="fill:#c97c82; stroke:none;" d="M1223 1553L1224 1554L1223 1553M1887 1553L1888 1554L1887 1553z"/>
<path style="fill:#3b68ee; stroke:none;" d="M1187 1554L1188 1555L1187 1554M1889 1555L1890 1556L1889 1555M1889 1561L1890 1562L1889 1561z"/>
<path style="fill:#c97c82; stroke:none;" d="M1927 1564L1929 1566L1927 1564M1186 1565L1187 1566L1186 1565M1890 1565L1891 1566L1890 1565z"/>
<path style="fill:#e03628; stroke:none;" d="M1927 1565L1923 1573L1969 1604.73L2006 1612.45L2078 1626C2077.95 1612.14 2054.95 1613.52 2044 1611.12C2029.1 1607.85 2013.99 1605.08 1999 1602.26C1990.79 1600.72 1980.54 1600.24 1973 1596.56C1956.41 1588.48 1943.71 1572.94 1927 1565z"/>
<path style="fill:#c97c82; stroke:none;" d="M1931 1567L1932 1568L1931 1567M1935 1570L1936 1571L1935 1570M1938 1572L1940 1574L1938 1572M1923 1573L1924 1574L1923 1573z"/>
<path style="fill:#3b68ee; stroke:none;" d="M1897 1574L1898 1575L1897 1574z"/>
<path style="fill:#c97c82; stroke:none;" d="M1925 1574L1927 1576L1925 1574M1941 1574L1943 1576L1941 1574M1219 1575L1220 1576L1219 1575M1929 1577L1930 1578L1929 1577M1945 1577L1946 1578L1945 1577M1931 1578L1933 1580L1931 1578M1948 1579L1949 1580L1948 1579z"/>
<path style="fill:#3b68ee; stroke:none;" d="M1198 1580C1196.76 1595.64 1184.53 1592 1172 1592C1147.66 1592 1123.38 1593 1099 1593C1086.95 1593 1075.06 1594 1063 1594C1057.23 1594 1049.43 1592.66 1044 1594.86C1031.44 1599.94 1026.6 1612.98 1012 1614.71C973.79 1619.24 933.429 1616.64 895 1614.96C876.951 1614.17 852.742 1611.6 837.21 1623.7C830.968 1628.56 827.613 1639.13 824 1646L834 1646C836.799 1641.2 838.778 1634.27 843.329 1630.84C855.131 1621.95 872.321 1622.36 886 1622.96C905.634 1623.82 925.336 1624 945 1624C962.084 1624 978.927 1624.43 996 1624.01C1004.83 1623.8 1016.31 1624.46 1024.71 1621.49C1034.73 1617.95 1040.11 1603.79 1051 1602.15C1065.23 1600 1080.62 1602.59 1095 1601.96C1131.22 1600.37 1167.71 1600 1204 1600L1206 1581L1198 1580z"/>
<path style="fill:#c97c82; stroke:none;" d="M1206 1581L1207 1582L1206 1581M1935 1581L1936 1582L1935 1581M1937 1582L1939 1584L1937 1582M1952 1582L1953 1583L1952 1582M1197.33 1583.67L1197.67 1584.33L1197.33 1583.67M2535 1583L2536 1584L2535 1583M1955 1584L1957 1586L1955 1584z"/>
<path style="fill:#3b68ee; stroke:none;" d="M2535 1584L2536 1585L2535 1584z"/>
<path style="fill:#c97c82; stroke:none;" d="M1941 1585L1942 1586L1941 1585z"/>
<path style="fill:#030203; stroke:none;" d="M2535 1585L2535 1589L2536 1589L2535 1585z"/>
<path style="fill:#c97c82; stroke:none;" d="M1958 1586L1960 1588L1958 1586M1205 1588L1206 1589L1205 1588M1961 1588L1963 1590L1961 1588M2536 1588L2537 1589L2536 1588M1196 1589L1197 1590L1196 1589z"/>
<path style="fill:#3b68ee; stroke:none;" d="M2535 1589L2536 1590L2535 1589z"/>
<path style="fill:#c97c82; stroke:none;" d="M1948 1590L1949 1591L1948 1590M1965 1591L1967 1593L1965 1591M1136 1592L1136 1593L1148 1593L1136 1592M1951 1592L1953 1594L1951 1592M1057 1593L1057 1594L1083 1594L1057 1593M1043 1594L1042 1596L1043 1594M1204.33 1594.67L1204.67 1595.33L1204.33 1594.67M1954 1594L1956 1596L1954 1594M1969 1594L1971 1596L1969 1594M1957 1596L1959 1598L1957 1596M1972 1596L1973 1597L1972 1596M1974.67 1597.33L1975.33 1597.67L1974.67 1597.33z"/>
<path style="fill:#3b68ee; stroke:none;" d="M2534 1597L2535 1598L2534 1597z"/>
<path style="fill:#c97c82; stroke:none;" d="M1979 1598L1979 1599L1982 1599L1979 1598z"/>
<path style="fill:#030203; stroke:none;" d="M2534 1598L2535 1599L2534 1598z"/>
<path style="fill:#c97c82; stroke:none;" d="M1961 1599L1963 1601L1961 1599M1984.67 1599.33L1985.33 1599.67L1984.67 1599.33z"/>
<path style="fill:#3b68ee; stroke:none;" d="M2295 1599L2295 1600L2298 1600L2295 1599z"/>
<path style="fill:#c97c82; stroke:none;" d="M2298 1599L2299 1600L2298 1599M1036 1600L1035 1602L1036 1600M1166 1600L1166 1601L1192 1601L1166 1600M1990.67 1600.33L1991.33 1600.67L1990.67 1600.33M2314 1600L2314 1601L2317 1601L2314 1600M1099 1601L1099 1602L1112 1602L1099 1601M1994.67 1601.33L1995.33 1601.67L1994.67 1601.33M1047 1602L1048 1603L1047 1602M1965 1602L1967 1604L1965 1602M2000.67 1602.33L2001.33 1602.67L2000.67 1602.33z"/>
<path style="fill:#3b68ee; stroke:none;" d="M2298 1602L2299 1603L2298 1602z"/>
<path style="fill:#030203; stroke:none;" d="M2299 1602.48C2272.66 1606.61 2279.5 1645.78 2306 1640.66C2329.22 1636.18 2322.09 1598.86 2299 1602.48z"/>
<path style="fill:#c97c82; stroke:none;" d="M1033 1603L1034 1604L1033 1603M2004.67 1603.33L2005.33 1603.67L2004.67 1603.33z"/>
<path style="fill:#3b68ee; stroke:none;" d="M2294 1603L2295 1604L2294 1603z"/>
<path style="fill:#c97c82; stroke:none;" d="M1968 1604L1970 1606L1968 1604M2010.67 1604.33L2011.33 1604.67L2010.67 1604.33M2094 1604L2095 1605L2094 1604z"/>
<path style="fill:#030203; stroke:none;" d="M2095 1604.48C2068.64 1608.61 2075.59 1647.76 2102 1642.66C2125.4 1638.14 2118.05 1600.87 2095 1604.48z"/>
<path style="fill:#c97c82; stroke:none;" d="M2014 1605L2014 1606L2017 1606L2014 1605M2090 1605L2091 1606L2090 1605z"/>
<path style="fill:#3b68ee; stroke:none;" d="M2290 1605L2291 1606L2290 1605z"/>
<path style="fill:#c97c82; stroke:none;" d="M1042 1606L1043 1607L1042 1606M1974.67 1606.33L1975.33 1606.67L1974.67 1606.33M2020 1606L2020 1607L2023 1607L2020 1606M1028 1607L1029 1608L1028 1607M1978.67 1607.33L1979.33 1607.67L1978.67 1607.33M2024 1607L2024 1608L2027 1608L2024 1607M2086 1607L2087 1608L2086 1607M2329 1607L2328 1609L2329 1607M1040 1608L1041 1609L1040 1608M1984.67 1608.33L1985.33 1608.67L1984.67 1608.33M2030 1608L2030 1609L2033 1609L2030 1608M2315 1608L2316 1609L2315 1608z"/>
<path style="fill:#030203; stroke:none;" d="M2329 1608L2332 1610L2332 1609L2329 1608z"/>
<path style="fill:#3b68ee; stroke:none;" d="M2330 1608L2331 1609L2330 1608z"/>
<path style="fill:#c97c82; stroke:none;" d="M1988.67 1609.33L1989.33 1609.67L1988.67 1609.33M2035.67 1609.33L2036.33 1609.67L2035.67 1609.33M2110 1609L2112 1611L2110 1609z"/>
<path style="fill:#3b68ee; stroke:none;" d="M2328 1609L2329 1610L2328 1609z"/>
<path style="fill:#c97c82; stroke:none;" d="M2332 1609L2333 1610L2332 1609M1994.67 1610.33L1995.33 1610.67L1994.67 1610.33M2041.67 1610.33L2042.33 1610.67L2041.67 1610.33M2330 1610L2331 1611L2330 1610M1999.67 1611.33L2000.33 1611.67L1999.67 1611.33M2045 1611L2045 1612L2048 1612L2045 1611M2005.67 1612.33L2006.33 1612.67L2005.67 1612.33M2051 1612L2051 1613L2054 1613L2051 1612M2009.67 1613.33L2010.33 1613.67L2009.67 1613.33M2055 1613L2055 1614L2058 1614L2055 1613M2283 1613L2284 1614L2283 1613M890 1614L890 1615L895 1615L890 1614M1012.67 1614.33L1013.33 1614.67L1012.67 1614.33M1033 1614L1032 1616L1033 1614M2015.67 1614.33L2016.33 1614.67L2015.67 1614.33M2061 1614L2061 1615L2064 1615L2061 1614M860 1615L861 1616L860 1615M923 1615L923 1616L936 1616L923 1615M998 1615L998 1616L1002 1616L998 1615M2019 1615L2019 1616L2022 1616L2019 1615M2066.67 1615.33L2067.33 1615.67L2066.67 1615.33M2079 1615L2080 1616L2079 1615M2280 1615L2280 1616L2283 1616L2280 1615M970 1616L970 1617L976 1617L970 1616M985.667 1616.33L986.333 1616.67L985.667 1616.33M2025 1616L2025 1617L2028 1617L2025 1616M2072.67 1616.33L2073.33 1616.67L2072.67 1616.33M2240 1616L2240 1617L2256 1617L2240 1616z"/>
<path style="fill:#e03628; stroke:none;" d="M2116 1620L2116 1629C2158.64 1629 2201.33 1627 2244 1627C2255.25 1627 2281.95 1630.14 2282 1616L2116 1620z"/>
<path style="fill:#c97c82; stroke:none;" d="M854 1617L855 1618L854 1617M2030.67 1617.33L2031.33 1617.67L2030.67 1617.33M2076.67 1617.33L2077.33 1617.67L2076.67 1617.33M2211 1617L2211 1618L2228 1618L2211 1617M2036.67 1618.33L2037.33 1618.67L2036.67 1618.33M2170 1618L2170 1619L2186 1619L2170 1618M848 1619L849 1620L848 1619M2040.67 1619.33L2041.33 1619.67L2040.67 1619.33M2140 1619L2140 1620L2158 1620L2140 1619M1026 1620L1027 1621L1026 1620M2046.67 1620.33L2047.33 1620.67L2046.67 1620.33M2117 1620L2118 1621L2117 1620M2050.67 1621.33L2051.33 1621.67L2050.67 1621.33M866 1622L866 1623L882 1623L866 1622M1018 1622L1018 1623L1022 1623L1018 1622M2056 1622L2056 1623L2059 1623L2056 1622M836 1623L835 1625L836 1623M863 1623L864 1624L863 1623M908 1623L908 1624L914 1624L908 1623M1006.67 1623.33L1007.33 1623.67L1006.67 1623.33M2060 1623L2060 1624L2063 1624L2060 1623M2321 1623L2322 1624L2321 1623M860 1624L861 1625L860 1624M949 1624L949 1625L962 1625L949 1624M990 1624L990 1625L995 1625L990 1624M2067.67 1624.33L2068.33 1624.67L2067.67 1624.33M2281 1624L2282 1625L2281 1624z"/>
<path style="fill:#e03628; stroke:none;" d="M2320 1624L2318 1632C2322.37 1633.82 2329.91 1639.39 2334.77 1637.38C2344.61 1633.3 2323.16 1624.56 2320 1624z"/>
<path style="fill:#c97c82; stroke:none;" d="M2323 1624L2324 1625L2323 1624M857 1625L858 1626L857 1625M2071.67 1625.33L2072.33 1625.67L2071.67 1625.33M2270 1625L2270 1626L2276 1626L2270 1625M2325 1625L2326 1626L2325 1625M834 1626L835 1627L834 1626M854 1626L855 1627L854 1626M2077 1626L2078 1627L2077 1626M2255 1626L2255 1627L2262 1627L2255 1626M2327 1626L2328 1627L2327 1626M851 1627L852 1628L851 1627M2203 1627L2203 1628L2241 1628C2230.96 1623.79 2213.91 1627 2203 1627M2329 1627L2330 1628L2329 1627M833 1628L834 1629L833 1628M848 1628L849 1629L848 1628M2133 1628L2133 1629L2153 1629L2133 1628M2331 1628L2332 1629L2331 1628M845 1629L846 1630L845 1629M2333 1629L2334 1630L2333 1629M842 1630L843 1631L842 1630M2336 1631L2338 1633L2336 1631M2319 1632L2320 1633L2319 1632M840 1633L841 1634L840 1633M2321 1633L2322 1634L2321 1633M839 1635L840 1636L839 1635z"/>
<path style="fill:#3b68ee; stroke:none;" d="M2081 1635L2082 1636L2081 1635z"/>
<path style="fill:#c97c82; stroke:none;" d="M2325 1635L2326 1636L2325 1635M2337 1635L2336 1638L2337 1635M2328 1636L2330 1638L2328 1636M838 1637L839 1638L838 1637M2311 1638L2312 1639L2311 1638M2332 1638L2332 1639L2335 1639L2332 1638M837 1639L838 1640L837 1639z"/>
<path style="fill:#3b68ee; stroke:none;" d="M2107 1640L2108 1641L2107 1640z"/>
<path style="fill:#030203; stroke:none;" d="M825 1645.47C799.412 1650.18 807.494 1689.16 833 1683.61C856.931 1678.4 848.906 1641.07 825 1645.47z"/>
<path style="fill:#c97c82; stroke:none;" d="M835 1646L836 1647L835 1646M810 1656L811 1657L810 1656M846 1657L847 1658L846 1657M847 1668L848 1669L847 1668M805 1673L806 1674L805 1673z"/>
<path style="fill:#030203; stroke:none;" d="M806 1674L807 1675L806 1674z"/>
<path style="fill:#3b68ee; stroke:none;" d="M806 1675L807 1676L806 1675M813 1677L814 1678L813 1677M815 1679L816 1680L815 1679z"/>
<path style="fill:#c97c82; stroke:none;" d="M836 1682L837 1683L836 1682z"/>
<path style="fill:#3b68ee; stroke:none;" d="M823 1684C824.128 1698.29 832 1698.7 832 1684L823 1684z"/>
<path style="fill:#c97c82; stroke:none;" d="M823 1688L823 1692L824 1692L823 1688M824 1695L825 1696L824 1695M831 1695L832 1696L831 1695z"/>
</svg>
